<svg width="180" height="50" viewBox="0 0 180 50" fill="none" xmlns="http://www.w3.org/2000/svg">
<g clip-path="url(#clip0_339_24892)">
<path d="M46.0677 3.84884H45.3333C45.2823 3.71531 45.2194 3.65247 45.1369 3.65247H43.0555C42.9691 3.65247 42.9062 3.71531 42.8552 3.84884H38.2445C38.1777 3.84884 38.107 3.87633 38.0638 3.92738H33.9087C32.1021 3.92738 31.5248 2.18757 29.6711 1.26465C28.3947 0.632344 27.6838 0.48703 25.8969 0.471321C24.4398 0.3535 22.539 0.298517 20.3358 0.494884C20.2729 0.502739 20.2101 0.506669 20.1473 0.510597C18.0658 0.706964 15.5994 0.942604 12.7089 2.1483C11.1379 2.80416 8.64406 4.08055 6.14235 6.55085C4.85025 7.83902 3.75452 9.27643 2.87087 10.8199C1.13106 13.8479 0.20813 17.2882 0.20813 20.8778C0.20813 26.2897 2.31711 31.3795 6.14627 35.2048C8.03925 37.0977 10.2425 38.5744 12.6382 39.5759C15.568 40.8051 17.9754 40.9662 20.4732 41.139C22.2955 41.2646 25.135 41.4414 28.7403 40.6559C31.9136 39.9647 34.4742 38.7865 36.3672 37.6947C35.5503 37.0192 34.4703 35.9745 33.5081 34.4782C32.3102 32.6166 31.7958 30.8533 31.5601 29.7025C30.594 30.3663 27.0044 32.6677 22.0717 32.165C21.6671 32.1257 16.8208 31.5641 13.4001 27.9549C12.866 27.3933 11.8881 26.3447 11.2008 24.652C10.7216 23.4699 10.4664 22.1935 10.4664 20.8778C10.4664 18.2033 11.5071 15.6898 13.4001 13.8007C14.0677 13.1331 14.8061 12.5793 15.5915 12.1395C17.3549 11.1576 19.0437 11.0123 20.4772 10.8749C20.7246 10.8513 20.9602 10.8356 21.2076 10.8238C23.6465 10.8238 25.1703 10.8709 26.27 10.8474C26.3289 10.8474 26.38 10.8474 26.431 10.8474C27.8449 10.8042 28.54 10.6274 29.6789 10.058C31.5366 9.13897 32.1139 7.39523 33.9165 7.39523H38.0717C38.1149 7.44236 38.1855 7.46985 38.2523 7.46985H42.863C42.9141 7.60338 42.9769 7.66622 43.0633 7.66622H45.1448C45.2273 7.66622 45.2901 7.60338 45.3412 7.46985H46.0756C46.1541 7.46985 46.2209 7.45414 46.2719 7.41879C46.6725 7.15959 46.5822 6.26023 46.5115 5.65935C46.4605 5.21556 46.3466 4.58718 46.0756 3.85276L46.0677 3.84884ZM26.6588 7.0614C26.6588 7.35203 26.5724 7.62302 26.4271 7.85473C26.1639 8.27103 25.6966 8.54987 25.1664 8.54987H24.4359V8.57736C23.8664 8.5695 23.0221 8.56558 21.997 8.57736C21.1723 8.58521 19.6053 8.59307 18.9259 8.63627C17.7516 8.70696 15.9293 9.05649 13.5611 10.486C12.2886 9.21359 11.0123 7.9372 9.73979 6.66474C11.5503 5.07024 13.2823 4.22586 14.429 3.77814C14.6529 3.69174 14.8728 3.60927 15.0888 3.53858C16.4595 3.06729 17.618 2.88271 18.2032 2.79238C19.3343 2.61958 20.2808 2.5803 21.569 2.52532C22.2994 2.4939 22.9553 2.47427 23.5169 2.46249C23.8547 2.46249 24.1571 2.46249 24.4281 2.46249H25.1703C25.7044 2.46249 26.1757 2.74526 26.4349 3.16941C26.5763 3.3972 26.6588 3.66426 26.6588 3.95488V7.06533V7.0614Z" fill="url(#paint0_linear_339_24892)"/>
<path fill-rule="evenodd" clip-rule="evenodd" d="M58.4153 22.9082L56.8601 20.8817C55.4973 19.1026 53.7496 19.3697 55.2734 22.001C56.6362 24.3653 54.7314 25.8812 52.2062 23.0378C48.3063 18.6235 40.699 19.1183 40.699 25.2686C40.699 26.8199 41.0996 28.0609 41.7123 29.0545C43.7427 32.3338 48.1099 32.8758 48.1099 32.8837C44.9838 32.8405 42.0697 31.4227 40.106 29.0545C39.7329 28.6068 39.3952 28.1237 39.0967 27.6132C37.1998 24.3299 37.1998 20.2769 39.0967 16.9976C40.9111 13.8714 44.1944 11.8959 47.784 11.7349C47.9568 11.7349 48.1374 11.7231 48.3142 11.7231C54.8571 11.7231 60.3201 16.3613 61.5847 22.5312C62.0677 25.3942 59.7035 24.5931 58.4153 22.9161V22.9082Z" fill="url(#paint1_linear_339_24892)"/>
<path fill-rule="evenodd" clip-rule="evenodd" d="M49.2293 25.7712C49.0054 24.3377 48.3417 21.7103 46.3702 21.3765C48.5891 21.1448 50.49 23.026 51.3972 24.6519C53.1959 27.8763 49.6849 28.7128 49.2293 25.7712Z" fill="#C00820"/>
<path fill-rule="evenodd" clip-rule="evenodd" d="M49.4885 38.8297C49.406 40.9505 49.6338 43.0752 50.2347 43.8449C53.192 47.6152 57.2882 47.8587 57.6063 48.2514C57.7948 48.4792 57.8419 49.0958 57.5474 49.1272H39.2813C38.9907 49.0958 39.0378 48.4792 39.2185 48.2514C39.5405 47.8626 43.6367 47.6152 46.594 43.8449C47.1949 43.0791 47.4227 40.9505 47.3402 38.8297C40.3574 38.2838 34.863 32.4438 34.863 25.3275C34.863 21.3923 36.54 17.8498 39.2185 15.3756C38.9278 15.7605 38.6529 16.165 38.4055 16.5892C36.3397 20.1552 36.3397 24.5577 38.4055 28.1277C38.594 28.4458 38.7904 28.7561 39.0025 29.0546C39.026 29.0899 39.0496 29.1174 39.0732 29.1527C40.6637 31.3324 42.9455 32.8484 45.5219 33.4964C46.4526 33.732 47.4227 33.8577 48.4124 33.8577C49.5513 33.8577 50.6313 33.6378 51.621 33.2332C52.7246 32.7895 53.7104 32.1218 54.5233 31.2814C55.1596 30.6333 55.6858 29.8793 56.0864 29.0546C56.1375 28.9524 56.1846 28.8464 56.2317 28.7404C57.0054 26.977 57.1546 25.1743 56.7226 23.3442C56.6794 23.1635 56.7698 22.979 56.9347 22.9043C57.0957 22.8258 57.2921 22.8768 57.3981 23.0182C58.0187 23.8508 58.7295 24.6599 59.676 25.1076C60.2258 25.3707 60.8346 25.5082 61.4394 25.3118C61.5611 25.2725 61.6868 25.2922 61.7928 25.3628C61.8949 25.4414 61.9539 25.5435 61.9539 25.6574C61.7771 32.652 56.3417 38.2956 49.4767 38.8297H49.4885Z" fill="#050A3A"/>
<path d="M63.6544 15.1478C64.4398 14.8336 65.2174 14.594 65.9872 14.4252C66.757 14.2602 67.4992 14.1777 68.2179 14.1777C69.5297 14.1777 70.4526 14.4801 70.9828 15.081C71.5169 15.6858 71.8978 16.5459 72.1256 17.6652L73.7516 26.1365C74.1011 27.8331 74.3956 29.3962 74.6313 30.8297C74.8669 32.2632 75.0279 33.4335 75.1183 34.3447C75.1693 34.6235 75.3107 34.7649 75.5385 34.7649L78.4251 14.9396C79.0888 14.7825 79.9214 14.6726 80.915 14.6137C81.9126 14.5508 82.6549 14.5233 83.1458 14.5233C83.6877 14.5233 84.4771 14.5548 85.5179 14.6137C86.5586 14.6765 87.3834 14.7825 87.996 14.9396L90.9612 34.3486C91.0319 34.6274 91.1693 34.7688 91.3814 34.7688C91.5738 33.5788 91.782 32.2514 92.0098 30.7825C92.2376 29.3137 92.5086 27.7663 92.8227 26.1404L95.1556 14.6804C95.6112 14.5587 96.1217 14.4723 96.6912 14.4173C97.2606 14.3662 97.7869 14.3388 98.2778 14.3388C98.8355 14.3388 99.5581 14.378 100.442 14.4566C101.325 14.5351 102.056 14.7236 102.633 15.0221L102.869 15.5209L96.7579 40.8287C95.9371 40.9504 94.9671 41.0329 93.8478 41.0761C92.7285 41.1193 91.6877 41.1429 90.7255 41.1429C89.1507 41.1429 87.9646 40.919 87.1595 40.4752C86.3544 40.0275 85.8321 39.0103 85.5846 37.4198L84.6931 31.7801C84.5714 30.9043 84.43 29.9342 84.2729 28.8699C84.1158 27.8056 83.9587 26.6745 83.8016 25.4885C83.6445 24.2985 83.4953 23.1007 83.3539 21.895H83.0397C82.918 23.0849 82.7727 24.2632 82.6077 25.4335C82.4428 26.6039 82.2818 27.7192 82.1207 28.7757C81.9636 29.8321 81.8144 30.7983 81.673 31.674L80.2042 40.8287C79.348 40.9347 78.3466 41.0133 77.1998 41.0643C76.053 41.1154 74.9926 41.1429 74.0147 41.1429C72.4752 41.1429 71.3009 40.8955 70.4879 40.3967C69.675 39.8979 69.0937 38.8729 68.7442 37.3137L63.6583 15.1517L63.6544 15.1478Z" fill="#050A3A"/>
<path d="M118.924 40.8248C118.347 40.9309 117.695 41.0094 116.968 41.0604C116.242 41.1115 115.531 41.139 114.832 41.139C114.133 41.139 113.445 41.1115 112.719 41.0604C111.992 41.0094 111.324 40.9309 110.712 40.8248V23.462C110.712 22.5862 110.531 21.8636 110.174 21.2863C109.816 20.709 109.172 20.4223 108.245 20.4223H107.46C107.232 19.5307 107.118 18.6039 107.118 17.6417C107.118 17.1861 107.146 16.7031 107.197 16.1847C107.248 15.6702 107.338 15.1753 107.46 14.704C108.265 14.6176 109.09 14.5509 109.938 14.5077C110.786 14.4645 111.497 14.4409 112.075 14.4409H113.202C114.969 14.4409 116.363 15.0064 117.384 16.1336C118.405 17.2607 118.92 18.7885 118.92 20.709V40.8248H118.924ZM109.141 7.28136C109.141 6.79044 109.192 6.27989 109.298 5.74577C109.404 5.21165 109.549 4.7011 109.746 4.21018C110.201 3.98239 110.79 3.78995 111.517 3.63286C112.243 3.47577 112.954 3.39722 113.653 3.39722C114.352 3.39722 115.099 3.47577 115.845 3.63286C116.587 3.78995 117.161 3.98239 117.561 4.21018C117.754 4.7011 117.903 5.21951 118.009 5.76934C118.115 6.31916 118.166 6.82186 118.166 7.27743C118.166 7.73301 118.115 8.25534 118.009 8.79732C117.903 9.33929 117.754 9.84592 117.561 10.3172C117.161 10.545 116.587 10.7374 115.845 10.8945C115.103 11.0516 114.372 11.1302 113.653 11.1302C112.935 11.1302 112.228 11.0555 111.478 10.9063C110.728 10.7571 110.15 10.5607 109.746 10.3172C109.553 9.84592 109.404 9.33929 109.298 8.79732C109.192 8.25534 109.141 7.74872 109.141 7.27743V7.28136Z" fill="#050A3A"/>
<path d="M179.664 33.0447C178.938 35.3775 177.249 39.6308 173.294 43.3579C172.909 43.7192 171.15 45.3529 168.97 46.5626C159.552 51.7899 143.144 48.6676 139.075 39.8272C138.423 38.4133 138.191 37.078 138.109 36.0491V24.9072C138.109 23.7172 137.952 22.8375 137.646 22.268C137.339 21.7025 136.75 21.4158 135.878 21.4158C135.336 21.4158 134.712 21.5572 134.001 21.8478C133.325 22.1227 132.646 22.5744 131.967 23.1909V40.7187C131.393 40.8247 130.741 40.9033 130.015 40.9543C129.288 41.0093 128.577 41.0329 127.878 41.0329C127.179 41.0329 126.492 41.0093 125.765 40.9543C125.039 40.9033 124.371 40.8247 123.758 40.7187V14.5469L124.124 14.1777H127.218C128.793 14.1777 129.979 14.7157 130.773 15.7918C131.11 16.2435 131.374 16.7658 131.562 17.351C132.348 16.699 133.168 16.0864 134.025 15.513C135.466 14.5508 137.115 14.0717 138.969 14.0717C140.575 14.0717 141.922 14.4722 143.006 15.2656C144.094 16.0589 144.915 17.1585 145.473 18.5567C146.034 19.9548 146.309 21.569 146.309 23.407V34.16C146.231 35.8252 146.419 38.1188 147.727 40.2356C151.937 47.0613 163.527 45.1919 164.108 45.0898C173.962 43.3657 178.898 34.4781 179.664 33.0447Z" fill="#050A3A"/>
<path d="M173.977 27.7624C174.091 26.9848 174.15 26.0108 174.15 24.8405C174.15 22.7236 173.714 20.8307 172.85 19.1615C171.986 17.4924 170.737 16.1689 169.111 15.1871C167.485 14.2092 165.518 13.7222 163.213 13.7222C160.428 13.7222 158.174 14.3388 156.446 15.5837C154.714 16.8248 153.453 18.5096 152.656 20.6343C151.859 22.7551 151.462 25.139 151.462 27.7781C151.462 29.5101 151.643 31.191 152 32.8248C152.357 34.4625 152.974 35.9313 153.846 37.2312C154.722 38.5351 155.908 39.568 157.412 40.326C158.916 41.0879 160.821 41.4649 163.126 41.4649C163.974 41.4649 166.272 41.4963 168.699 40.6912C173.95 38.9436 176.675 34.3721 177.445 32.9622C171.762 37.8125 165.149 38.378 161.999 35.5189C161.461 35.028 160.02 33.5317 159.78 30.2406H173.435C173.679 29.3687 173.86 28.54 173.973 27.7624H173.977ZM166.594 24.6009H159.733C159.819 23.0928 160.071 21.9342 160.471 21.1134C160.986 20.0648 161.885 19.5425 163.158 19.5425C163.994 19.5425 164.666 19.7467 165.164 20.1552C165.663 20.5675 166.028 21.1095 166.252 21.7811C166.48 22.4566 166.59 23.1949 166.59 23.9961V24.6009H166.594Z" fill="#050A3A"/>
</g>
<defs>
<linearGradient id="paint0_linear_339_24892" x1="23.5248" y1="41.4453" x2="23.3245" y2="0.432048" gradientUnits="userSpaceOnUse">
<stop stop-color="#050A3A"/>
<stop offset="0.07" stop-color="#290934"/>
<stop offset="0.17" stop-color="#51092F"/>
<stop offset="0.27" stop-color="#73082A"/>
<stop offset="0.38" stop-color="#8F0826"/>
<stop offset="0.5" stop-color="#A40823"/>
<stop offset="0.63" stop-color="#B40821"/>
<stop offset="0.78" stop-color="#BD0820"/>
<stop offset="1" stop-color="#C00820"/>
</linearGradient>
<linearGradient id="paint1_linear_339_24892" x1="41.2057" y1="30.0992" x2="55.7447" y2="14.4566" gradientUnits="userSpaceOnUse">
<stop stop-color="#050A3A"/>
<stop offset="0.07" stop-color="#290934"/>
<stop offset="0.17" stop-color="#51092F"/>
<stop offset="0.27" stop-color="#73082A"/>
<stop offset="0.38" stop-color="#8F0826"/>
<stop offset="0.5" stop-color="#A40823"/>
<stop offset="0.63" stop-color="#B40821"/>
<stop offset="0.78" stop-color="#BD0820"/>
<stop offset="1" stop-color="#C00820"/>
</linearGradient>
<clipPath id="clip0_339_24892">
<rect width="180" height="49.4845" fill="white"/>
</clipPath>
</defs>
</svg>
