<svg width="146" height="54" viewBox="0 0 146 54" fill="none" xmlns="http://www.w3.org/2000/svg">
<rect width="40" height="2" transform="translate(0.474854 25.7949)" fill="#C00820"/>
<g clip-path="url(#clip0_468_37180)">
<path d="M67.7557 21.9207C68.5131 23.6885 67.6827 25.7713 65.907 26.5318C64.1313 27.2923 62.0446 26.4709 61.2871 24.703C60.5297 22.9352 61.3601 20.8524 63.1358 20.0919C64.9403 19.3196 66.9865 20.1241 67.7557 21.9207Z" fill="#D6A1B7"/>
<path d="M65.9841 26.8018C65.0615 27.1795 64.0556 27.1892 63.1222 26.8005C62.1717 26.4523 61.4038 25.7277 61.0278 24.8092C60.6111 23.8738 60.6216 22.8305 61.0144 21.8989C61.3955 20.9385 62.1076 20.2112 63.059 19.8217C63.9986 19.4035 65.0451 19.4107 65.9785 19.7995C66.9407 20.1764 67.668 20.884 68.0558 21.8313C68.4725 22.7667 68.462 23.8099 68.0692 24.7416C67.6882 25.702 66.976 26.4292 66.0246 26.8187C66.0129 26.79 65.9841 26.8018 65.9841 26.8018ZM63.3399 20.3435C63.3111 20.3553 63.3111 20.3553 63.2822 20.3671C62.5038 20.6858 61.8953 21.3371 61.5708 22.1068C61.2581 22.9051 61.2753 23.7694 61.5926 24.5444C61.9099 25.3194 62.5614 25.9241 63.3325 26.2452C64.1323 26.5545 64.9994 26.5346 65.7779 26.216C66.5563 25.8973 67.1648 25.2459 67.4893 24.4763C67.802 23.678 67.7848 22.8136 67.4675 22.0386C67.1502 21.2636 66.4987 20.659 65.7276 20.3378C64.9566 20.0167 64.1183 20.0248 63.3399 20.3435Z" fill="#7C0021"/>
<path d="M79.1916 23.7068C79.9961 25.5894 79.1315 27.7532 77.2405 28.5609C75.3495 29.3687 73.1816 28.5135 72.3771 26.6308C71.5727 24.7482 72.4372 22.5844 74.3283 21.7767C76.2075 20.9402 78.3872 21.8241 79.1916 23.7068Z" fill="#D6A1B7"/>
<path d="M77.3004 28.8716C75.2823 29.6978 72.9521 28.775 72.0889 26.7488C71.6605 25.7847 71.6475 24.684 72.0456 23.6831C72.4437 22.6823 73.2018 21.9027 74.2108 21.4896C75.191 21.0883 76.2834 21.0432 77.2862 21.437C78.289 21.8308 79.0687 22.5841 79.48 23.5887C80.3432 25.6149 79.3933 27.9812 77.3581 28.848C77.3581 28.848 77.3293 28.8598 77.3004 28.8716ZM74.4917 22.0114C74.4629 22.0232 74.4629 22.0232 74.4341 22.035C73.598 22.3773 72.9606 23.0404 72.602 23.891C72.2722 24.7299 72.2841 25.6634 72.6249 26.4959C73.3588 28.2063 75.3238 28.977 77.0248 28.2806C77.0536 28.2688 77.0536 28.2688 77.0825 28.257C78.8005 27.5201 79.5968 25.5183 78.8628 23.8079C78.522 22.9755 77.8588 22.3421 77.0065 21.9872C76.2067 21.6779 75.3278 21.6691 74.4917 22.0114Z" fill="#7C0021"/>
<path d="M72.4446 27.2068C73.2021 28.9746 72.3717 31.0574 70.596 31.8179C68.8203 32.5784 66.7335 31.757 65.9761 29.9892C65.2186 28.2213 66.049 26.1386 67.8247 25.3781C69.6293 24.6057 71.6872 25.439 72.4446 27.2068Z" fill="#D6A1B7"/>
<path d="M70.6557 32.1283C69.7332 32.506 68.7272 32.5157 67.7939 32.127C66.8317 31.7501 66.1043 31.0424 65.7165 30.0952C65.2999 29.1597 65.3103 28.1165 65.6743 27.1966C66.0554 26.2362 66.7675 25.509 67.7189 25.1195C69.6676 24.2881 71.9166 25.1772 72.7446 27.1172C73.5725 29.0573 72.6738 31.3021 70.7251 32.1334C70.7134 32.1047 70.6845 32.1165 70.6557 32.1283ZM67.9998 25.6412C67.971 25.653 67.971 25.653 67.9422 25.6649C67.1637 25.9835 66.5552 26.6349 66.2307 27.4045C65.918 28.2029 65.9352 29.0672 66.2525 29.8422C66.5698 30.6172 67.2213 31.2219 67.9924 31.543C68.7923 31.8523 69.6594 31.8324 70.4378 31.5137C72.0693 30.8122 72.8143 28.932 72.1157 27.3077C71.4693 25.729 69.6143 24.9803 67.9998 25.6412Z" fill="#7C0021"/>
<path d="M84.9964 29.0051C85.7538 30.773 84.9234 32.8557 83.1477 33.6162C81.372 34.3768 79.2853 33.5554 78.5278 31.7875C77.7704 30.0197 78.6008 27.9369 80.3765 27.1764C82.181 26.4041 84.2272 27.2086 84.9964 29.0051Z" fill="#D6A1B7"/>
<path d="M83.1959 33.8983C82.2734 34.276 81.2675 34.2857 80.3341 33.897C79.3719 33.52 78.6445 32.8124 78.2567 31.8652C77.4288 29.9251 78.3275 27.6803 80.2762 26.849C80.305 26.8372 80.305 26.8372 80.3338 26.8254C82.2654 26.0345 84.4857 26.9353 85.3019 28.8467C86.1298 30.7868 85.2311 33.0315 83.2824 33.8629C83.2536 33.8747 83.2248 33.8865 83.1959 33.8983ZM80.5518 27.4399C80.523 27.4517 80.523 27.4517 80.4941 27.4636C78.8626 28.165 78.1176 30.0453 78.8162 31.6696C79.1335 32.4446 79.785 33.0493 80.5561 33.3704C81.356 33.6797 82.1942 33.6716 83.0015 33.3411C84.633 32.6396 85.3781 30.7594 84.6911 29.1638C84.0213 27.5277 82.1663 26.779 80.5518 27.4399Z" fill="#7C0021"/>
<path d="M71.5897 34.3264C72.3471 36.0943 71.5167 38.177 69.741 38.9375C67.9653 39.6981 65.8785 38.8766 65.1211 37.1088C64.3637 35.341 65.1941 33.2582 66.9698 32.4977C68.7455 31.7372 70.8205 32.5299 71.5897 34.3264Z" fill="#D6A1B7"/>
<path d="M69.789 39.2195C67.8574 40.0104 65.6372 39.1095 64.821 37.1982C64.4044 36.2628 64.4148 35.2195 64.8076 34.2878C65.1887 33.3275 65.9008 32.6002 66.8522 32.2107C68.8009 31.3794 71.05 32.2684 71.8779 34.2084C72.7059 36.1485 71.8071 38.3933 69.8585 39.2246C69.8179 39.2077 69.789 39.2195 69.789 39.2195ZM67.1449 32.7612C67.1161 32.773 67.1161 32.773 67.0872 32.7848C66.3088 33.1035 65.7003 33.7548 65.3758 34.5244C65.063 35.3228 65.0803 36.1871 65.3976 36.9621C66.0963 38.5864 67.9801 39.3233 69.6117 38.6218C71.2432 37.9203 71.9882 36.0401 71.3013 34.4445C70.6144 32.8489 68.7594 32.1002 67.1449 32.7612Z" fill="#7C0021"/>
<path d="M77.013 38.7756C77.7704 40.5435 76.94 42.6262 75.1643 43.3867C73.3886 44.1473 71.3019 43.3259 70.5444 41.558C69.787 39.7902 70.6174 37.7074 72.3931 36.9469C74.1976 36.1746 76.2556 37.0078 77.013 38.7756Z" fill="#D6A1B7"/>
<path d="M75.2242 43.6975C74.3016 44.0752 73.2957 44.0849 72.3623 43.6962C71.4001 43.3193 70.6728 42.6116 70.285 41.6644C69.457 39.7243 70.3557 37.4795 72.3044 36.6482C74.2243 35.8287 76.5022 36.7059 77.3301 38.6459C78.1581 40.586 77.2594 42.8308 75.3107 43.6621C75.2818 43.6739 75.253 43.6857 75.2242 43.6975ZM72.5683 37.2105C72.5394 37.2223 72.5394 37.2223 72.5106 37.2341C70.8791 37.9356 70.134 39.8158 70.8327 41.4401C71.15 42.2151 71.8015 42.8198 72.5726 43.1409C73.3725 43.4502 74.2396 43.4303 75.018 43.1116C76.6495 42.4101 77.3945 40.5299 76.6959 38.9056C76.0378 37.2982 74.1828 36.5495 72.5683 37.2105Z" fill="#7C0021"/>
<path d="M83.7249 36.095C84.4824 37.8628 83.6519 39.9456 81.8762 40.7061C80.1005 41.4666 78.0138 40.6452 77.2563 38.8774C76.4989 37.1095 77.3293 35.0268 79.105 34.2662C80.9096 33.4939 82.9675 34.3271 83.7249 36.095Z" fill="#D6A1B7"/>
<path d="M81.9649 41.0049C81.0423 41.3826 80.0364 41.3922 79.103 41.0035C78.1408 40.6266 77.4135 39.9189 77.0257 38.9717C76.609 38.0363 76.6195 36.993 77.0123 36.0614C77.3934 35.101 78.1055 34.3737 79.0569 33.9842C80.0083 33.5947 81.043 33.5733 81.9646 33.9333C82.9268 34.3102 83.6542 35.0178 84.042 35.9651C84.8699 37.9051 83.9712 40.1499 82.0225 40.9813C81.9937 40.9931 81.9649 41.0049 81.9649 41.0049ZM79.3207 34.5465C79.2919 34.5583 79.2919 34.5583 79.2631 34.5701C78.4847 34.8888 77.8761 35.5401 77.5516 36.3098C77.2389 37.1081 77.2561 37.9725 77.5734 38.7475C77.8907 39.5225 78.5422 40.1271 79.3133 40.4482C80.1132 40.7575 80.9514 40.7495 81.7587 40.419C83.3902 39.7175 84.1352 37.8373 83.4366 36.2129C83.1193 35.4379 82.4678 34.8333 81.6967 34.5122C80.9374 34.2198 80.0991 34.2278 79.3207 34.5465Z" fill="#7C0021"/>
<path d="M82.668 43.2976C83.4255 45.0654 82.5951 47.1482 80.8194 47.9087C79.0437 48.6692 76.9569 47.8478 76.1995 46.08C75.442 44.3122 76.2724 42.2294 78.0481 41.4689C79.8238 40.7084 81.9106 41.5298 82.668 43.2976Z" fill="#D6A1B7"/>
<path d="M80.8792 48.2191C78.9476 49.01 76.7274 48.1091 75.9112 46.1978C75.4945 45.2624 75.505 44.2191 75.8978 43.2874C76.2789 42.3271 76.991 41.5998 77.9424 41.2103C78.8938 40.8208 79.9285 40.7993 80.8619 41.188C81.8241 41.565 82.5514 42.2726 82.9392 43.2198C83.3559 44.1553 83.3454 45.1985 82.9814 46.1184C82.6004 47.0788 81.8883 47.806 80.9369 48.1955C80.908 48.2073 80.908 48.2073 80.8792 48.2191ZM78.2233 41.7321C78.1945 41.7439 78.1945 41.7439 78.1657 41.7557C77.3872 42.0744 76.7787 42.7257 76.4542 43.4953C76.1415 44.2937 76.1587 45.158 76.476 45.933C77.1747 47.5573 79.0297 48.306 80.6901 47.5927C81.4685 47.2741 82.077 46.6227 82.4015 45.8531C82.7143 45.0547 82.697 44.1904 82.3797 43.4154C82.0624 42.6404 81.4109 42.0357 80.6399 41.7146C79.8517 41.434 79.0017 41.4134 78.2233 41.7321Z" fill="#7C0021"/>
<path d="M78.1905 31.4563C78.9479 33.2241 78.1175 35.3069 76.3418 36.0674C74.5661 36.8279 72.4794 36.0065 71.7219 34.2387C70.9645 32.4709 71.7949 30.3881 73.5706 29.6276C75.3751 28.8552 77.433 29.6885 78.1905 31.4563Z" fill="#D6A1B7"/>
<path d="M76.4016 36.3782C74.47 37.169 72.2497 36.2682 71.4335 34.3569C71.0169 33.4215 71.0274 32.3782 71.4202 31.4465C71.8012 30.4862 72.5134 29.7589 73.4647 29.3694C75.3846 28.5499 77.6625 29.4271 78.4905 31.3671C78.9071 32.3025 78.8966 33.3458 78.5038 34.2775C78.1228 35.2378 77.4106 35.9651 76.4592 36.3546C76.4592 36.3546 76.4304 36.3664 76.4016 36.3782ZM73.7457 29.8912C73.7169 29.903 73.7169 29.903 73.688 29.9148C72.9096 30.2335 72.3011 30.8848 71.9766 31.6544C71.6638 32.4528 71.6811 33.3171 71.9984 34.0921C72.6971 35.7164 74.5809 36.4533 76.2125 35.7518C76.9909 35.4331 77.5994 34.7818 77.9239 34.0122C78.2366 33.2138 78.2194 32.3495 77.9021 31.5745C77.2152 29.9789 75.3602 29.2302 73.7457 29.8912Z" fill="#7C0021"/>
<path d="M65.9749 29.8215C66.7324 31.5894 65.9019 33.6721 64.1262 34.4326C62.3217 35.205 60.2638 34.3718 59.5063 32.6039C58.7489 30.8361 59.5793 28.7533 61.355 27.9928C63.1307 27.2323 65.2175 28.0537 65.9749 29.8215Z" fill="#D6A1B7"/>
<path d="M64.1861 34.7433C62.2545 35.5342 60.0343 34.6333 59.2181 32.722C58.3901 30.7819 59.2888 28.5371 61.2375 27.7058C63.1862 26.8745 65.4353 27.7635 66.2632 29.7035C66.6799 30.639 66.6694 31.6822 66.2766 32.6139C65.8955 33.5743 65.1834 34.3015 64.232 34.691C64.2149 34.7315 64.1861 34.7433 64.1861 34.7433ZM61.5302 28.2563C61.5014 28.2681 61.5014 28.2681 61.4725 28.2799C59.841 28.9814 59.096 30.8616 59.7947 32.4859C60.4933 34.1102 62.3772 34.8471 64.0087 34.1456C64.7871 33.827 65.3957 33.1756 65.7202 32.406C66.0329 31.6076 66.0157 30.7433 65.6984 29.9683C64.9997 28.344 63.1447 27.5953 61.5302 28.2563Z" fill="#7C0021"/>
<path d="M60.9334 28.9364C60.9334 28.9364 59.8112 29.731 59.914 31.2976L60.9334 28.9364Z" fill="#D6A1B7"/>
<path d="M60.7582 28.673C59.9179 29.2516 59.5838 30.3268 59.6193 31.3177C59.645 31.7094 60.2515 31.6287 60.2258 31.237C60.1861 30.4824 60.4754 29.6266 61.1256 29.1593C61.4769 28.9485 61.0689 28.4452 60.7582 28.673Z" fill="#7C0021"/>
<path d="M60.2112 32.5171C60.2112 32.5171 59.9655 32.0814 59.9986 31.8333L60.2112 32.5171Z" fill="#D6A1B7"/>
<path d="M60.4994 32.3988C60.4642 32.3127 60.4407 32.2553 60.3766 32.181C60.3531 32.1236 60.3296 32.0662 60.2943 31.98C60.2708 31.9226 60.2943 31.98 60.2708 31.9226C60.2708 31.9226 60.2644 31.8247 60.2591 31.8939C60.258 31.7268 60.1586 31.5664 59.9792 31.5393C59.8287 31.5004 59.6504 31.6404 59.6226 31.8194C59.6131 32.1249 59.7306 32.4119 59.8652 32.6585C59.9528 32.7902 60.098 32.8983 60.271 32.8275C60.4728 32.7449 60.5988 32.5592 60.4994 32.3988Z" fill="#7C0021"/>
<path d="M61.3127 7.49919L60.1417 9.65439C60.1417 9.65439 66.8333 11.7744 68.518 15.6428L68.9793 15.4539C68.9793 15.4539 66.875 11.9585 66.0611 11.2862C66.0611 11.2862 68.5137 9.71234 69.303 10.1601C69.303 10.1601 68.1308 12.1481 70.2774 13.2802C72.4529 14.4004 73.5708 13.8422 73.5708 13.8422L72.0809 12.3407C72.0809 12.3407 74.17 14.4012 77.7192 12.546C77.7192 12.546 76.966 10.5418 75.3577 10.3959C75.3577 10.3959 79.7243 10.6191 80.706 6.93263C80.706 6.93263 77.1461 2.75958 74.3084 6.43501C74.3084 6.43501 76.0028 4.73585 75.727 3.24003C75.727 3.24003 72.5607 2.65952 70.6048 5.0355L71.4886 3.16546C71.4886 3.16546 65.633 5.96502 69.164 9.24503C69.164 9.24503 66.3631 9.72146 65.211 10.3607C65.1821 10.3725 62.8056 7.69234 61.3127 7.49919Z" fill="#EADAE2"/>
<path d="M77.1565 13.1449C75.7438 13.7233 74.5874 13.694 73.6957 13.4893L74.1378 13.9116L73.746 14.1055C73.6883 14.1291 72.455 14.7346 70.1461 13.535C69.4092 13.1328 68.9318 12.6245 68.7597 11.9576C68.5706 11.3312 68.7285 10.7303 68.8705 10.337C68.3505 10.3824 67.4108 10.8006 66.5641 11.2813C67.5136 12.3672 69.1736 15.1061 69.2612 15.2379L69.4481 15.53L68.3643 16.0072L68.2468 15.7202C66.6272 12.0933 60.1321 9.95985 60.0627 9.95476L59.7092 9.83136L61.1429 7.16647L61.3511 7.18176C62.734 7.35291 64.6608 9.34581 65.2141 9.95717C66.142 9.51025 67.6604 9.19022 68.4976 9.01504C67.845 8.24326 67.5853 7.44465 67.7016 6.65972C68.0397 4.44336 71.1864 2.92045 71.3017 2.87324L72.0972 2.51404L71.4813 3.80517C73.4213 2.54167 75.6383 2.94111 75.7483 2.9631L75.9682 3.0071L76.0217 3.21983C76.1179 3.78371 75.9888 4.37281 75.755 4.8707C76.101 4.72906 76.4993 4.63302 76.904 4.6349C79.0717 4.58527 80.8661 6.66589 80.9302 6.7402L81.0466 6.86011L81.0071 7.01034C80.3359 9.56417 78.1673 10.3515 76.683 10.5905C77.5662 11.2679 77.984 12.3704 78.0075 12.4278L78.1132 12.6862L77.8655 12.8211C77.6178 12.956 77.3872 13.0505 77.1565 13.1449ZM72.2933 12.1196C72.398 12.2108 74.1955 13.888 77.2845 12.3887C77.0442 11.8838 76.3894 10.7778 75.2788 10.6962L75.3267 10.0733C75.5349 10.0886 79.375 10.2592 80.3365 7.01678C79.9349 6.61144 78.4802 5.1961 76.9137 5.23419C76.1854 5.26424 75.5341 5.56442 74.9426 6.17525C74.7248 6.4655 74.5583 6.63424 74.5294 6.64604L74.0584 6.2356C74.1844 6.04997 74.3221 5.89304 74.4716 5.76481C74.8901 5.2248 75.4741 4.34893 75.4397 3.52511C74.6762 3.46904 72.3632 3.41056 70.8259 5.24653L69.3002 7.1112L70.7882 3.92133C69.8668 4.46616 68.5151 5.5223 68.3209 6.77481C68.1929 7.53103 68.5391 8.29423 69.3358 9.007L69.778 9.42924L69.1544 9.55049C69.1256 9.56229 66.3941 10.0438 65.2996 10.6595L65.0807 10.7826L64.9002 10.5884C64.3406 9.87911 62.6295 8.16654 61.4943 7.86045L60.603 9.46545C61.704 9.85255 65.147 11.1912 67.3355 13.4121C66.7576 12.5762 66.1915 11.769 65.8487 11.5072L65.5347 11.2336L65.886 11.0227C66.312 10.7477 68.5521 9.3949 69.4631 9.89333L69.7301 10.0521L69.5699 10.3188C69.5699 10.3188 69.1355 11.0664 69.3545 11.8481C69.4849 12.331 69.8459 12.7194 70.4375 13.0135C71.6326 13.6302 72.4773 13.7201 72.9685 13.6865L71.8513 12.6022L72.2933 12.1196Z" fill="#7C0021"/>
<path d="M62.8186 21.1264C62.8186 21.1264 61.6965 21.9209 61.7993 23.4876L62.8186 21.1264Z" fill="#D6A1B7"/>
<path d="M62.6265 20.9034C61.7862 21.482 61.4522 22.5572 61.4876 23.5481C61.5133 23.9398 62.1198 23.859 62.0941 23.4674C62.0545 22.7128 62.3437 21.857 62.9939 21.3897C63.3335 21.1502 62.966 20.6638 62.6265 20.9034Z" fill="#7C0021"/>
<path d="M62.0796 24.7475C62.0796 24.7475 61.8339 24.3119 61.867 24.0638L62.0796 24.7475Z" fill="#D6A1B7"/>
<path d="M62.3678 24.6293C62.3326 24.5432 62.3091 24.4858 62.245 24.4114C62.2215 24.354 62.198 24.2966 62.1627 24.2105C62.1392 24.1531 62.1627 24.2105 62.1392 24.1531C62.1392 24.1531 62.1328 24.0552 62.1275 24.1244C62.1264 23.9573 62.027 23.7969 61.8476 23.7698C61.6971 23.7309 61.5188 23.8709 61.491 24.0498C61.4815 24.3554 61.599 24.6424 61.7336 24.8889C61.8212 25.0207 61.9664 25.1288 62.1394 25.0579C62.3412 24.9753 62.4554 24.761 62.3678 24.6293Z" fill="#7C0021"/>
<path d="M67.5066 26.2455C67.5066 26.2455 66.3845 27.0401 66.4873 28.6067L67.5066 26.2455Z" fill="#D6A1B7"/>
<path d="M67.3026 25.9938C66.4623 26.5724 66.1283 27.6476 66.1637 28.6385C66.1894 29.0302 66.7959 28.9495 66.7702 28.5578C66.7306 27.8032 67.0198 26.9474 67.67 26.4801C68.0213 26.2693 67.6421 25.7542 67.3026 25.9938Z" fill="#7C0021"/>
<path d="M66.7557 29.8374C66.7557 29.8374 66.51 29.4017 66.543 29.1536L66.7557 29.8374Z" fill="#D6A1B7"/>
<path d="M67.0439 29.7191C67.0086 29.633 66.9851 29.5756 66.921 29.5013C66.8975 29.4439 66.874 29.3865 66.8388 29.3004C66.8153 29.243 66.8388 29.3004 66.8153 29.243C66.8153 29.243 66.8088 29.145 66.8035 29.2142C66.8024 29.0471 66.7031 28.8867 66.5237 28.8596C66.3731 28.8207 66.1948 28.9607 66.1671 29.1397C66.1575 29.4452 66.275 29.7323 66.4096 29.9788C66.4972 30.1105 66.6425 30.2186 66.8154 30.1478C67.0172 30.0652 67.1432 29.8795 67.0439 29.7191Z" fill="#7C0021"/>
<path d="M73.2183 30.5761C73.2183 30.5761 72.0961 31.3706 72.1989 32.9373L73.2183 30.5761Z" fill="#D6A1B7"/>
<path d="M73.0431 30.3126C72.2028 30.8913 71.8687 31.9664 71.9042 32.9574C71.9299 33.3491 72.5364 33.2683 72.5107 32.8766C72.471 32.122 72.7603 31.2663 73.4105 30.799C73.733 30.5999 73.3538 30.0849 73.0431 30.3126Z" fill="#7C0021"/>
<path d="M72.4961 34.1567C72.4961 34.1567 72.2504 33.7211 72.2835 33.4729L72.4961 34.1567Z" fill="#D6A1B7"/>
<path d="M72.7844 34.0385C72.7491 33.9523 72.7256 33.8949 72.6615 33.8206C72.638 33.7632 72.6145 33.7058 72.5792 33.6197C72.5557 33.5623 72.5792 33.6197 72.5557 33.5623C72.5557 33.5623 72.5493 33.4644 72.544 33.5336C72.5429 33.3665 72.4436 33.206 72.2641 33.1789C72.1136 33.14 71.9353 33.2801 71.9075 33.459C71.898 33.7646 72.0155 34.0516 72.1501 34.2981C72.2377 34.4298 72.3829 34.538 72.5559 34.4671C72.7577 34.3845 72.8837 34.1989 72.7844 34.0385Z" fill="#7C0021"/>
<path d="M80.0767 28.1703C80.0767 28.1703 78.9545 28.9649 79.0573 30.5315L80.0767 28.1703Z" fill="#D6A1B7"/>
<path d="M79.8727 27.9186C79.0324 28.4972 78.6983 29.5724 78.7338 30.5634C78.7595 30.955 79.366 30.8743 79.3403 30.4826C79.3006 29.728 79.5899 28.8722 80.2401 28.4049C80.5914 28.1941 80.2122 27.679 79.8727 27.9186Z" fill="#7C0021"/>
<path d="M79.3374 31.7915C79.3374 31.7915 79.0918 31.3558 79.1248 31.1077L79.3374 31.7915Z" fill="#D6A1B7"/>
<path d="M79.6257 31.6732C79.5904 31.5871 79.5669 31.5297 79.5028 31.4554C79.4793 31.398 79.4558 31.3406 79.4206 31.2545C79.397 31.1971 79.4206 31.2545 79.3971 31.1971C79.3971 31.1971 79.3906 31.0991 79.3853 31.1684C79.3842 31.0012 79.2849 30.8408 79.1055 30.8137C78.9549 30.7748 78.7766 30.9148 78.7488 31.0938C78.7393 31.3993 78.8568 31.6864 78.9914 31.9329C79.079 32.0646 79.2242 32.1727 79.3972 32.1019C79.599 32.0193 79.7132 31.8049 79.6257 31.6732Z" fill="#7C0021"/>
<path d="M78.7762 35.2719C78.7762 35.2719 77.654 36.0664 77.7568 37.6331L78.7762 35.2719Z" fill="#D6A1B7"/>
<path d="M78.584 35.0489C77.7437 35.6275 77.4097 36.7027 77.4451 37.6936C77.4708 38.0853 78.0773 38.0046 78.0516 37.6129C78.012 36.8583 78.3012 36.0025 78.9514 35.5352C79.291 35.2957 78.9235 34.8093 78.584 35.0489Z" fill="#7C0021"/>
<path d="M78.0371 38.8931C78.0371 38.8931 77.7915 38.4574 77.8245 38.2093L78.0371 38.8931Z" fill="#D6A1B7"/>
<path d="M78.3254 38.7748C78.2901 38.6887 78.2666 38.6313 78.2025 38.557C78.179 38.4995 78.1555 38.4421 78.1203 38.356C78.0968 38.2986 78.1203 38.356 78.0968 38.2986C78.0968 38.2986 78.0903 38.2007 78.085 38.2699C78.0839 38.1028 77.9846 37.9424 77.8052 37.9153C77.6546 37.8764 77.4763 38.0164 77.4485 38.1953C77.439 38.5009 77.5565 38.7879 77.6911 39.0345C77.7787 39.1662 77.9239 39.2743 78.0969 39.2035C78.2987 39.1208 78.413 38.9065 78.3254 38.7748Z" fill="#7C0021"/>
<path d="M72.1219 37.9291C72.1219 37.9291 70.9997 38.7237 71.1025 40.2903L72.1219 37.9291Z" fill="#D6A1B7"/>
<path d="M71.9297 37.7061C71.0894 38.2847 70.7554 39.3599 70.7908 40.3509C70.8165 40.7425 71.423 40.6618 71.3973 40.2701C71.3577 39.5155 71.6469 38.6598 72.2971 38.1924C72.6367 37.9529 72.2693 37.4665 71.9297 37.7061Z" fill="#7C0021"/>
<path d="M71.4117 41.5386C71.4117 41.5386 71.166 41.1029 71.199 40.8548L71.4117 41.5386Z" fill="#D6A1B7"/>
<path d="M71.6999 41.4203C71.6646 41.3342 71.6411 41.2768 71.577 41.2025C71.5535 41.1451 71.53 41.0876 71.4948 41.0015C71.4713 40.9441 71.4948 41.0015 71.4713 40.9441C71.4713 40.9441 71.4648 40.8462 71.4595 40.9154C71.4584 40.7483 71.3591 40.5879 71.1797 40.5608C71.0291 40.5219 70.8508 40.6619 70.8231 40.8408C70.8135 41.1464 70.931 41.4334 71.0656 41.68C71.1532 41.8117 71.2985 41.9198 71.4714 41.849C71.6444 41.7781 71.7586 41.5638 71.6999 41.4203Z" fill="#7C0021"/>
<path d="M77.7022 42.515C77.7022 42.515 76.58 43.3096 76.6828 44.8762L77.7022 42.515Z" fill="#D6A1B7"/>
<path d="M77.5388 42.2803C76.6986 42.8589 76.3645 43.9341 76.3999 44.9251C76.4256 45.3167 77.0322 45.236 77.0065 44.8443C76.9668 44.0897 77.256 43.234 77.9063 42.7667C78.2458 42.5271 77.8496 42.0526 77.5388 42.2803Z" fill="#7C0021"/>
<path d="M76.992 46.1245C76.992 46.1245 76.7463 45.6888 76.7794 45.4407L76.992 46.1245Z" fill="#D6A1B7"/>
<path d="M77.2802 46.0062C77.2449 45.9201 77.2214 45.8627 77.1574 45.7884C77.1339 45.731 77.1104 45.6736 77.0751 45.5875C77.0516 45.5301 77.0751 45.5875 77.0516 45.5301C77.0516 45.5301 77.0452 45.4322 77.0398 45.5014C77.0387 45.3342 76.9394 45.1738 76.76 45.1467C76.6094 45.1078 76.4311 45.2479 76.4034 45.4268C76.3938 45.7323 76.5113 46.0194 76.6459 46.2659C76.7335 46.3976 76.8788 46.5057 77.0518 46.4349C77.2536 46.3523 77.3678 46.1379 77.2802 46.0062Z" fill="#7C0021"/>
<path d="M73.9248 22.8466C73.9248 22.8466 72.8027 23.6412 72.9055 25.2078L73.9248 22.8466Z" fill="#D6A1B7"/>
<path d="M73.7208 22.5948C72.8805 23.1735 72.5465 24.2487 72.5819 25.2396C72.6076 25.6313 73.2141 25.5505 73.1884 25.1589C73.1488 24.4043 73.438 23.5485 74.0882 23.0812C74.4395 22.8703 74.0603 22.3553 73.7208 22.5948Z" fill="#7C0021"/>
<path d="M73.2027 26.4272C73.2027 26.4272 72.957 25.9916 72.99 25.7434L73.2027 26.4272Z" fill="#D6A1B7"/>
<path d="M73.4909 26.309C73.4556 26.2228 73.4321 26.1654 73.3681 26.0911C73.3445 26.0337 73.321 25.9763 73.2858 25.8902C73.2623 25.8328 73.2858 25.8902 73.2623 25.8328C73.2623 25.8328 73.2559 25.7349 73.2505 25.8041C73.2494 25.637 73.1501 25.4765 72.9707 25.4495C72.8201 25.4106 72.6418 25.5506 72.6141 25.7295C72.6045 26.0351 72.722 26.3221 72.8566 26.5686C72.9442 26.7003 73.0895 26.8085 73.2625 26.7376C73.4354 26.6668 73.5614 26.4812 73.4909 26.309Z" fill="#7C0021"/>
<path d="M66.6172 33.4462C66.6172 33.4462 65.4951 34.2408 65.5979 35.8074L66.6172 33.4462Z" fill="#D6A1B7"/>
<path d="M66.4422 33.1827C65.6019 33.7613 65.2678 34.8365 65.3033 35.8274C65.329 36.2191 65.9355 36.1383 65.9098 35.7467C65.8701 34.9921 66.1594 34.1363 66.8096 33.669C67.1491 33.4295 66.7529 32.9549 66.4422 33.1827Z" fill="#7C0021"/>
<path d="M65.8953 37.0268C65.8953 37.0268 65.6496 36.5912 65.6827 36.3431L65.8953 37.0268Z" fill="#D6A1B7"/>
<path d="M66.1835 36.9086C66.1483 36.8225 66.1248 36.765 66.0607 36.6907C66.0372 36.6333 66.0137 36.5759 65.9784 36.4898C65.9549 36.4324 65.9784 36.4898 65.9549 36.4324C65.9549 36.4324 65.9485 36.3345 65.9432 36.4037C65.9421 36.2366 65.8427 36.0762 65.6633 36.0491C65.5127 36.0102 65.3344 36.1502 65.3067 36.3291C65.2971 36.6347 65.4147 36.9217 65.5493 37.1682C65.6369 37.3 65.7821 37.4081 65.9551 37.3372C66.1569 37.2546 66.2829 37.069 66.1835 36.9086Z" fill="#7C0021"/>
<path d="M81.3934 16.5046C82.1508 18.2725 81.3204 20.3552 79.5447 21.1158C77.769 21.8763 75.6822 21.0549 74.9248 19.287C74.1674 17.5192 74.9978 15.4364 76.7735 14.6759C78.5492 13.9154 80.6359 14.7368 81.3934 16.5046Z" fill="#D6A1B7"/>
<path d="M79.6045 21.4262C78.682 21.804 77.6761 21.8136 76.7427 21.4249C75.7805 21.048 75.0531 20.3403 74.6653 19.3931C74.2487 18.4577 74.2592 17.4144 74.652 16.4828C75.033 15.5224 75.7451 14.7951 76.6965 14.4056C77.6479 14.0161 78.6827 13.9946 79.6043 14.3547C80.5665 14.7316 81.2938 15.4392 81.6816 16.3865C82.0983 17.3219 82.0878 18.3651 81.695 19.2968C81.314 20.2572 80.6018 20.9844 79.6504 21.3739C79.6334 21.4144 79.6334 21.4144 79.6045 21.4262ZM76.9486 14.9392C76.9198 14.951 76.9198 14.951 76.891 14.9628C76.1126 15.2815 75.504 15.9328 75.1795 16.7025C74.8668 17.5008 74.884 18.3651 75.2013 19.1401C75.5186 19.9151 76.1701 20.5198 76.9412 20.8409C77.7411 21.1502 78.6082 21.1304 79.3866 20.8117C80.165 20.493 80.7735 19.8416 81.098 19.072C81.4108 18.2737 81.3935 17.4093 81.0762 16.6343C80.7589 15.8593 80.1074 15.2547 79.3364 14.9336C78.5771 14.6412 77.727 14.6205 76.9486 14.9392Z" fill="#7C0021"/>
<path d="M74.0723 18.0271C74.8298 19.7949 73.9994 21.8777 72.2237 22.6382C70.4479 23.3987 68.3612 22.5773 67.6038 20.8095C66.8463 19.0417 67.6767 16.9589 69.4524 16.1984C71.257 15.4261 73.3149 16.2593 74.0723 18.0271Z" fill="#D6A1B7"/>
<path d="M72.2836 22.9488C71.3611 23.3265 70.3552 23.3362 69.4218 22.9474C68.4596 22.5705 67.7322 21.8629 67.3444 20.9156C66.9278 19.9802 66.9383 18.937 67.3311 18.0053C67.7121 17.0449 68.4242 16.3177 69.3756 15.9282C70.3153 15.5099 71.3618 15.5172 72.2951 15.9059C73.2573 16.2828 73.9847 16.9905 74.3725 17.9377C74.7891 18.8731 74.7786 19.9164 74.3859 20.848C74.0048 21.8084 73.2927 22.5357 72.3413 22.9252C72.3125 22.937 72.3125 22.937 72.2836 22.9488ZM69.6277 16.4617C69.5989 16.4735 69.5989 16.4735 69.5701 16.4853C68.7917 16.804 68.1831 17.4554 67.8586 18.225C67.5459 19.0233 67.5631 19.8877 67.8804 20.6627C68.1977 21.4377 68.8492 22.0423 69.6203 22.3634C70.4202 22.6727 71.2873 22.6529 72.0657 22.3342C72.8441 22.0155 73.4526 21.3642 73.7771 20.5945C74.0899 19.7962 74.0726 18.9319 73.7553 18.1569C73.438 17.3819 72.7865 16.7772 72.0155 16.4561C71.2444 16.135 70.4061 16.143 69.6277 16.4617Z" fill="#7C0021"/>
<path d="M86.1635 21.824C86.9209 23.5919 86.0905 25.6746 84.3148 26.4352C82.5391 27.1957 80.4523 26.3743 79.6949 24.6064C78.9375 22.8386 79.7679 20.7558 81.5436 19.9953C83.331 19.2635 85.406 20.0562 86.1635 21.824Z" fill="#D6A1B7"/>
<path d="M84.3746 26.746C82.443 27.5368 80.2227 26.636 79.4065 24.7246C78.9899 23.7892 79.0004 22.746 79.3643 21.8261C79.7454 20.8657 80.4575 20.1385 81.4089 19.749C82.3603 19.3595 83.395 19.338 84.3284 19.7267C85.2906 20.1036 86.018 20.8113 86.4058 21.7585C87.2337 23.6986 86.335 25.9434 84.3863 26.7747C84.4034 26.7342 84.3746 26.746 84.3746 26.746ZM81.7304 20.2876C81.7016 20.2994 81.7016 20.2994 81.6728 20.3112C80.8944 20.6299 80.2858 21.2813 79.9613 22.0509C79.6486 22.8492 79.6658 23.7136 79.9831 24.4886C80.6818 26.1129 82.5656 26.8498 84.1684 26.1601C85.7999 25.4586 86.5449 23.5784 85.8463 21.9541C85.529 21.1791 84.8775 20.5744 84.1064 20.2533C83.3471 19.9609 82.5088 19.9689 81.7304 20.2876Z" fill="#7C0021"/>
<path d="M81.2725 20.9779C81.2725 20.9779 80.1503 21.7725 80.2531 23.3391L81.2725 20.9779Z" fill="#D6A1B7"/>
<path d="M81.0973 20.7145C80.257 21.2931 79.9229 22.3683 79.9584 23.3592C79.9841 23.7509 80.5906 23.6702 80.5649 23.2785C80.5252 22.5239 80.8145 21.6681 81.4647 21.2008C81.7872 21.0018 81.408 20.4867 81.0973 20.7145Z" fill="#7C0021"/>
<path d="M80.656 24.8169C80.656 24.8169 80.4104 24.3812 80.4434 24.1331L80.656 24.8169Z" fill="#D6A1B7"/>
<path d="M80.9443 24.6986C80.909 24.6125 80.8855 24.5551 80.8214 24.4808C80.7979 24.4234 80.7744 24.366 80.7392 24.2799C80.7157 24.2224 80.7392 24.2799 80.7157 24.2224C80.7157 24.2224 80.7092 24.1245 80.7039 24.1937C80.7028 24.0266 80.6035 23.8662 80.4241 23.8391C80.2735 23.8002 80.0952 23.9402 80.0674 24.1192C80.0579 24.4247 80.1754 24.7118 80.31 24.9583C80.3976 25.09 80.5428 25.1981 80.7158 25.1273C80.9176 25.0447 81.0319 24.8303 80.9443 24.6986Z" fill="#7C0021"/>
<path d="M76.513 15.5194C76.513 15.5194 75.3908 16.314 75.4936 17.8806L76.513 15.5194Z" fill="#D6A1B7"/>
<path d="M76.3208 15.2964C75.4805 15.8751 75.1465 16.9502 75.1819 17.9412C75.2076 18.3329 75.8141 18.2521 75.7884 17.8605C75.7488 17.1058 76.038 16.2501 76.6883 15.7828C77.0278 15.5432 76.6604 15.0569 76.3208 15.2964Z" fill="#7C0021"/>
<path d="M75.774 19.1406C75.774 19.1406 75.5283 18.705 75.5613 18.4568L75.774 19.1406Z" fill="#D6A1B7"/>
<path d="M76.0622 19.0223C76.0269 18.9362 76.0034 18.8788 75.9393 18.8045C75.9158 18.7471 75.8923 18.6897 75.8571 18.6036C75.8336 18.5462 75.8571 18.6036 75.8336 18.5462C75.8336 18.5462 75.8271 18.4483 75.8218 18.5175C75.8207 18.3503 75.7214 18.1899 75.542 18.1628C75.3914 18.1239 75.2131 18.264 75.1854 18.4429C75.1758 18.7484 75.2933 19.0355 75.4279 19.282C75.5155 19.4137 75.6608 19.5218 75.8337 19.451C76.0356 19.3684 76.1498 19.1541 76.0622 19.0223Z" fill="#7C0021"/>
<path d="M69.0662 17.2279C69.0662 17.2279 67.944 18.0225 68.0468 19.5891L69.0662 17.2279Z" fill="#D6A1B7"/>
<path d="M68.8621 16.9761C68.0218 17.5547 67.6878 18.6299 67.7232 19.6209C67.7489 20.0125 68.3554 19.9318 68.3297 19.5401C68.2901 18.7855 68.5793 17.9298 69.2295 17.4625C69.5691 17.2229 69.1728 16.7484 68.8621 16.9761Z" fill="#7C0021"/>
<path d="M68.3152 20.8203C68.3152 20.8203 68.0695 20.3846 68.1026 20.1365L68.3152 20.8203Z" fill="#D6A1B7"/>
<path d="M68.6034 20.702C68.5682 20.6159 68.5447 20.5585 68.4806 20.4842C68.4571 20.4268 68.4336 20.3694 68.3983 20.2833C68.3748 20.2259 68.3983 20.2833 68.3748 20.2259C68.3748 20.2259 68.3684 20.1279 68.3631 20.1972C68.362 20.03 68.2626 19.8696 68.0832 19.8425C67.9327 19.8036 67.7544 19.9437 67.7266 20.1226C67.7171 20.4281 67.8346 20.7152 67.9692 20.9617C68.0568 21.0934 68.202 21.2015 68.375 21.1307C68.5768 21.0481 68.691 20.8337 68.6034 20.702Z" fill="#7C0021"/>
<path d="M61.2896 9.25146C61.2896 9.25146 62.8317 9.89368 63.2151 10.1724L61.2896 9.25146Z" fill="#D6A1B7"/>
<path d="M61.17 9.53492C61.7788 9.78842 62.4857 10.0352 63.0144 10.422C63.3455 10.6552 63.7181 10.1675 63.387 9.93435C62.806 9.50192 62.0584 9.23822 61.4091 8.96781C61.0439 8.81571 60.776 9.39462 61.17 9.53492Z" fill="#7C0021"/>
<path d="M63.9297 10.6841C63.9297 10.6841 64.359 10.9105 64.4637 11.0017L63.9297 10.6841Z" fill="#D6A1B7"/>
<path d="M63.8102 10.9677C63.9843 11.064 64.106 11.1147 64.263 11.2516C64.3794 11.3715 64.593 11.3175 64.7136 11.2011C64.8225 11.056 64.7809 10.872 64.6644 10.7521C64.4957 10.5865 64.2639 10.5138 64.0781 10.3888C63.9446 10.3094 63.714 10.4039 63.6745 10.5541C63.5773 10.7279 63.6767 10.8883 63.8102 10.9677Z" fill="#7C0021"/>
</g>
<rect width="40" height="2" transform="translate(105.525 25.7949)" fill="#C00820"/>
<defs>
<clipPath id="clip0_468_37180">
<rect width="30" height="45.625" fill="white" transform="translate(50.4749 11.3667) rotate(-22.2649)"/>
</clipPath>
</defs>
</svg>
