<svg width="100" height="101" viewBox="0 0 100 101" fill="none" xmlns="http://www.w3.org/2000/svg">
<g clip-path="url(#clip0_289_10446)">
<path d="M32.7879 61.0218H31.0963C30.696 61.0218 30.3121 60.8628 30.029 60.5797C29.7459 60.2966 29.5869 59.9127 29.5869 59.5124C29.5869 59.1121 29.7459 58.7282 30.029 58.4451C30.3121 58.162 30.696 58.003 31.0963 58.003H32.7879C33.1114 58.0027 33.4216 57.8741 33.6504 57.6453C33.8792 57.4166 34.0078 57.1064 34.0082 56.7829C34.0089 56.5562 33.9461 56.3338 33.827 56.1409C33.7078 55.948 33.5371 55.7923 33.334 55.6915L21.3473 49.6923C15.8297 46.9308 11.1994 42.6966 7.95664 37.4474C4.71387 32.1981 3 26.1622 3 19.9923V17.6278C3 14.9003 5.21895 12.6812 7.94668 12.6812H25.833C26.2333 12.6812 26.6172 12.8402 26.9003 13.1232C27.1834 13.4063 27.3424 13.7902 27.3424 14.1905C27.3424 14.5908 27.1834 14.9748 26.9003 15.2578C26.6172 15.5409 26.2333 15.6999 25.833 15.6999H7.94648C6.8834 15.6999 6.01855 16.5647 6.01855 17.6278V19.9923C6.01855 25.6015 7.57676 31.0888 10.5248 35.8608C13.4699 40.6303 17.6853 44.485 22.6984 46.9929L34.6852 52.9921C36.1295 53.7151 37.0268 55.1677 37.0268 56.7827C37.0268 59.1202 35.1254 61.0218 32.7879 61.0218ZM67.957 61.0218H66.2654C63.9281 61.0218 62.0266 59.1202 62.0266 56.7829C62.0266 55.1677 62.9238 53.7153 64.3682 52.9923L76.3551 46.9929C81.3682 44.485 85.5837 40.6303 88.5287 35.8608C91.4756 31.0926 93.0359 25.5977 93.035 19.9923V17.6278C93.035 16.5647 92.1701 15.6999 91.107 15.6999H73.2207C72.8204 15.6999 72.4365 15.5409 72.1534 15.2578C71.8703 14.9748 71.7113 14.5908 71.7113 14.1905C71.7113 13.7902 71.8703 13.4063 72.1534 13.1232C72.4365 12.8402 72.8204 12.6812 73.2207 12.6812H91.107C93.8346 12.6812 96.0537 14.9001 96.0537 17.6278V19.9923C96.0548 26.1581 94.3385 32.2023 91.0971 37.4474C87.8575 42.6936 83.2207 46.9337 77.7064 49.6923L65.7197 55.6915C65.5167 55.7923 65.3459 55.9479 65.2268 56.1408C65.1077 56.3337 65.0449 56.556 65.0457 56.7827C65.0461 57.1062 65.1748 57.4164 65.4035 57.6451C65.6323 57.8739 65.9425 58.0025 66.266 58.0028H67.9576C68.3579 58.0029 68.7419 58.162 69.0249 58.4452C69.3079 58.7283 69.4669 59.1123 69.4668 59.5126C69.4667 59.9129 69.3076 60.2968 69.0245 60.5799C68.7413 60.8629 68.3574 61.0219 67.957 61.0218Z" fill="#F7A738"/>
<path d="M54.6829 67.0175V60.4507H44.3708V67.0175C44.3707 68.442 43.9749 69.8386 43.2273 71.0512C42.4797 72.2639 41.4099 73.2449 40.1372 73.8849L39.1006 74.406C38.1395 74.8892 37.3316 75.63 36.767 76.5458C36.2025 77.4615 35.9036 78.5161 35.9036 79.5919V87.2798H63.1502V79.5919C63.1503 78.5161 62.8513 77.4615 62.2868 76.5458C61.7222 75.63 60.9143 74.8892 59.9532 74.406L58.9167 73.8849C57.6439 73.2449 56.574 72.2639 55.8264 71.0513C55.0788 69.8386 54.6829 68.4421 54.6829 67.0175Z" fill="#FEC93E"/>
<path d="M59.9532 74.406L58.9167 73.8849C57.644 73.2449 56.5741 72.2639 55.8265 71.0513C55.0789 69.8386 54.6831 68.442 54.6831 67.0175V60.4507H49.5269V87.2798H63.1503V79.5919C63.1503 78.5161 62.8513 77.4615 62.2868 76.5458C61.7222 75.6301 60.9143 74.8892 59.9532 74.406Z" fill="#EFB635"/>
<path d="M49.5267 66.0146C37.0121 61.0052 28.4457 49.3028 27.4525 35.8595L25.1462 4.63916H73.9074L71.6011 35.8595C70.6078 49.3028 62.0414 61.0052 49.5267 66.0146Z" fill="#FEC93E"/>
<path d="M64.2176 4.63916L61.9112 35.8595C61.202 45.4581 56.6313 57.872 49.5198 66.0116L49.5268 66.0146C62.0415 61.0052 70.6079 49.3028 71.601 35.8595L73.9075 4.63916H64.2176Z" fill="#EFB635"/>
<path d="M76.189 7.52051H22.8647C22.3664 7.52051 21.8885 7.32255 21.5362 6.97019C21.1838 6.61783 20.9858 6.13992 20.9858 5.6416V2.46875C20.9858 1.97043 21.1838 1.49253 21.5362 1.14016C21.8885 0.787799 22.3664 0.589844 22.8647 0.589844L76.189 0.589844C76.6873 0.589844 77.1652 0.787799 77.5176 1.14016C77.8699 1.49253 78.0679 1.97043 78.0679 2.46875V5.64141C78.0681 6.6791 77.2267 7.52051 76.189 7.52051Z" fill="#F7A738"/>
<path d="M76.1889 4.04189H22.8647C21.8786 4.04189 21.0715 3.28193 20.9934 2.31592C20.9893 2.3665 20.9856 2.41729 20.9856 2.46885V5.6415C20.9856 6.13982 21.1836 6.61773 21.5359 6.97009C21.8883 7.32245 22.3662 7.52041 22.8645 7.52041H76.1887C76.687 7.52041 77.1649 7.32245 77.5173 6.97009C77.8697 6.61773 78.0676 6.13982 78.0676 5.6415V2.46885C78.0676 2.41729 78.0639 2.3665 78.0598 2.31592C77.9821 3.28193 77.175 4.04189 76.1889 4.04189Z" fill="#EA9632"/>
<path d="M73.322 95.2258H25.7319V86.6033C25.7319 83.7584 28.0382 81.4521 30.8831 81.4521H68.1712C71.0161 81.4521 73.3224 83.7584 73.3224 86.6033V95.2258H73.322Z" fill="#F7A738"/>
<path d="M68.171 81.4521H62.7788V87.5396C62.7788 89.6543 61.0645 91.3688 58.9497 91.3688H25.7319V95.226H73.322V86.6033C73.322 83.7584 71.0157 81.4521 68.171 81.4521Z" fill="#EA9632"/>
<path d="M77.397 100.59H21.6563C21.5005 100.59 21.3511 100.528 21.2409 100.418C21.1307 100.307 21.0688 100.158 21.0688 100.002V94.7208C21.0688 94.565 21.1307 94.4156 21.2409 94.3054C21.3511 94.1952 21.5005 94.1333 21.6563 94.1333H77.397C77.5528 94.1333 77.7022 94.1952 77.8124 94.3054C77.9226 94.4156 77.9845 94.565 77.9845 94.7208V100.002C77.9845 100.158 77.9226 100.307 77.8124 100.418C77.7022 100.528 77.5528 100.59 77.397 100.59Z" fill="#FEC93E"/>
<path d="M55.7664 67.8086H43.2873C41.73 67.8086 40.4675 66.5461 40.4675 64.9889V64.0795C40.4675 62.5223 41.73 61.2598 43.2873 61.2598H55.7664C57.3236 61.2598 58.5861 62.5223 58.5861 64.0795V64.9889C58.5861 66.5463 57.3236 67.8086 55.7664 67.8086Z" fill="#FF8150"/>
<path d="M55.7664 64.5343H43.2873C42.1529 64.5343 41.1775 63.8628 40.73 62.897C40.5574 63.2673 40.4678 63.6708 40.4675 64.0794V64.9888C40.4675 66.546 41.73 67.8085 43.2873 67.8085H55.7664C57.3236 67.8085 58.5861 66.546 58.5861 64.9888V64.0794C58.5861 63.6565 58.4904 63.2569 58.3236 62.897C57.8761 63.8628 56.9007 64.5343 55.7664 64.5343Z" fill="#FD6E2E"/>
<path d="M49.9907 15.0568L53.4847 24.7044L63.74 25.046C64.2011 25.0615 64.3907 25.6449 64.0267 25.9285L55.931 32.2328L58.7751 42.0916C58.903 42.5349 58.4066 42.8955 58.0245 42.6369L49.5269 36.8855L41.0294 42.6369C40.6474 42.8955 40.1509 42.5349 40.2788 42.0916L43.123 32.2328L35.0273 25.9285C34.6632 25.6451 34.8528 25.0615 35.314 25.046L45.5693 24.7044L49.0632 15.0568C49.22 14.623 49.8337 14.623 49.9907 15.0568Z" fill="#F2EBDA"/>
<path d="M77.397 94.1333H67.4413V96.2206C67.4413 97.4542 66.4413 98.4542 65.2077 98.4542H21.6563C21.5005 98.4542 21.3511 98.3923 21.2409 98.2821C21.1307 98.1719 21.0688 98.0225 21.0688 97.8667V100.002C21.0688 100.158 21.1307 100.307 21.2409 100.418C21.3511 100.528 21.5005 100.59 21.6563 100.59H77.397C77.5528 100.59 77.7022 100.528 77.8124 100.418C77.9226 100.307 77.9845 100.158 77.9845 100.002V94.7208C77.9845 94.565 77.9226 94.4156 77.8124 94.3054C77.7022 94.1952 77.5528 94.1333 77.397 94.1333Z" fill="#EFB635"/>
</g>
<defs>
<clipPath id="clip0_289_10446">
<rect width="100" height="100" fill="white" transform="translate(0 0.589844)"/>
</clipPath>
</defs>
</svg>
