<svg width="100" height="101" viewBox="0 0 100 101" fill="none" xmlns="http://www.w3.org/2000/svg">
<g clip-path="url(#clip0_289_10476)">
<path d="M27.4658 74.0781V80.698C27.4658 81.9523 28.4828 82.9695 29.7379 82.9695H70.1904C71.4455 82.9695 72.4625 81.9523 72.4625 80.698V74.0781C72.4625 65.1615 65.2344 57.9343 56.3187 57.9343H43.6098C34.6939 57.9343 27.4658 65.1615 27.4658 74.0781Z" fill="#8CBAFA"/>
<path d="M56.3187 57.9343H51.2253C60.141 57.9343 67.3683 65.1623 67.3683 74.0781V80.698C67.3683 81.9523 66.3513 82.9695 65.097 82.9695H70.1904C71.4455 82.9695 72.4625 81.9523 72.4625 80.698V74.0781C72.4625 65.1615 65.2343 57.9343 56.3187 57.9343Z" fill="#5692D8"/>
<path d="M49.411 50.0271C43.4882 50.2996 38.6513 53.3254 38.2858 59.2428C37.9792 64.2154 40.7813 68.5705 44.9333 70.551C45.3499 70.7494 45.8206 70.4349 45.8198 69.9734V69.9629C45.8198 66.8271 47.6753 64.2851 49.9642 64.2851C52.253 64.2851 54.1077 66.8271 54.1077 69.9629V69.9734C54.1077 70.4349 54.5784 70.7494 54.995 70.5502C58.9394 68.6689 61.6653 64.6459 61.6653 59.9851C61.6653 53.339 56.1249 49.7176 49.411 50.0271Z" fill="#E9E9EA"/>
<path d="M68.7981 11.5788C64.6563 2.31907 55.0348 -1.22644 45.2256 2.31907C37.3139 5.17845 31.2631 2.59368 28.1006 0.780987C27.1721 0.248369 26.0514 0.882549 25.8774 2.03509C24.7622 9.41966 24.2952 27.5745 34.1172 35.5687H67.6332C71.57 30.8788 80.5278 12.5486 68.7981 11.5788Z" fill="#575B7A"/>
<path d="M68.7981 11.5789C65.002 3.09018 56.6002 -0.591652 47.6702 1.58432C54.6342 1.373 60.7889 5.10679 63.8491 12.183C74.7522 13.1146 67.167 30.0931 63.1831 35.5687H67.6332C71.57 30.8789 80.5278 12.5486 68.7981 11.5789Z" fill="#252D4C"/>
<path d="M41.0728 46.6824V54.6962C41.0728 59.6066 45.0538 63.5876 49.9642 63.5876C54.8745 63.5876 58.8554 59.6066 58.8554 54.6962V46.6826L41.0728 46.6824Z" fill="#FFD2C0"/>
<path d="M58.8554 54.6963V46.6826H41.0728V54.6416C43.663 56.7221 46.9513 57.9701 50.5325 57.9701H51.9188C54.2727 57.9724 56.5942 57.4223 58.6968 56.3641C58.7997 55.824 58.8554 55.267 58.8554 54.6963Z" fill="#EDAA9D"/>
<path d="M68.9414 30.2387H65.773V27.8119C65.773 24.2422 64.1212 21.0608 61.5425 18.9838C60.7345 18.3332 59.613 18.2713 58.7226 18.8055C56.163 20.3412 53.1679 21.2262 49.9642 21.2262C46.7613 21.2262 43.766 20.3412 41.2056 18.8055C40.316 18.2723 39.1945 18.3332 38.3857 18.984C35.807 21.0608 34.156 24.2422 34.156 27.8119V30.2389H30.9869C28.8964 30.2389 27.1164 31.8639 27.0415 33.9537C26.9638 36.1463 28.7185 37.949 30.8945 37.949H34.1562V39.4346C34.1562 47.7826 40.9234 54.5498 49.2714 54.5498H50.6576C59.005 54.5498 65.7722 47.7826 65.7722 39.4346V37.949H69.0339C71.2097 37.949 72.9644 36.1463 72.8867 33.953C72.8126 31.8647 71.032 30.2387 68.9414 30.2387Z" fill="#FFD2C0"/>
<path d="M40.3312 30.9467C40.0382 30.9467 39.7423 30.8588 39.4851 30.6766C39.1683 30.452 38.9537 30.1107 38.8885 29.7278C38.8233 29.3449 38.9128 28.9518 39.1374 28.635C40.0978 27.2786 41.1796 26.5911 42.3531 26.5911C43.5257 26.5911 44.6076 27.2786 45.5689 28.635C45.7935 28.9519 45.883 29.345 45.8178 29.7279C45.7526 30.1107 45.5379 30.452 45.221 30.6766C45.0641 30.7879 44.8868 30.8672 44.6992 30.91C44.5116 30.9527 44.3175 30.9581 44.1278 30.9258C43.9381 30.8935 43.7567 30.8242 43.5938 30.7217C43.431 30.6193 43.2899 30.4857 43.1787 30.3288C42.6537 29.5885 42.3531 29.5215 42.3499 29.5208C42.3531 29.5215 42.0525 29.5887 41.5277 30.3288C41.3923 30.52 41.213 30.676 41.0048 30.7836C40.7965 30.8911 40.5655 30.9471 40.3312 30.9467ZM59.5976 30.9467C59.3632 30.947 59.1322 30.891 58.9239 30.7835C58.7157 30.6759 58.5362 30.52 58.4007 30.3288C57.8765 29.5885 57.5751 29.5215 57.573 29.5208C57.5751 29.5215 57.2746 29.5887 56.7498 30.3288C56.6386 30.4857 56.4976 30.6193 56.3348 30.7217C56.172 30.8242 55.9907 30.8935 55.801 30.9258C55.6114 30.9581 55.4173 30.9527 55.2298 30.91C55.0423 30.8672 54.865 30.7879 54.7082 30.6766C54.5512 30.5655 54.4177 30.4245 54.3152 30.2617C54.2127 30.099 54.1433 29.9176 54.111 29.728C54.0786 29.5384 54.0839 29.3443 54.1265 29.1568C54.1692 28.9693 54.2483 28.792 54.3595 28.635C55.3208 27.2786 56.4025 26.5911 57.5751 26.5911C58.7486 26.5911 59.8304 27.2791 60.791 28.635C61.2595 29.295 61.1031 30.2088 60.4433 30.6774C60.1961 30.8526 59.9006 30.9467 59.5976 30.9467ZM49.9642 45.2313C46.798 45.2313 43.8949 43.3735 42.5683 40.4971C42.4057 40.1443 42.3898 39.7414 42.5241 39.3769C42.6584 39.0124 42.9319 38.7161 43.2845 38.5532C43.4593 38.4726 43.6482 38.4272 43.8404 38.4196C44.0327 38.4121 44.2246 38.4424 44.4052 38.509C44.5857 38.5756 44.7513 38.6771 44.8926 38.8078C45.0339 38.9384 45.1481 39.0956 45.2287 39.2704C46.0777 41.1114 47.9371 42.3016 49.9642 42.3016C51.9914 42.3016 53.8505 41.1114 54.6998 39.2704C54.7792 39.094 54.8928 38.9351 55.034 38.8029C55.1752 38.6706 55.3412 38.5677 55.5224 38.4999C55.7036 38.4322 55.8964 38.401 56.0898 38.4082C56.2831 38.4154 56.4731 38.4608 56.6487 38.5418C56.8244 38.6228 56.9823 38.7378 57.1133 38.8802C57.2443 39.0225 57.3458 39.1894 57.4119 39.3712C57.478 39.553 57.5075 39.7461 57.4986 39.9394C57.4897 40.1326 57.4427 40.3222 57.3601 40.4971C56.0333 43.3727 53.1304 45.2311 49.9642 45.2311V45.2313Z" fill="#252D4C"/>
<path d="M72.9141 100.59H27.0145C19.8266 100.59 14 94.7637 14 87.576C14 80.3885 19.8266 74.5618 27.0143 74.5618H72.9141C80.1016 74.5618 85.9281 80.3883 85.9281 87.576C85.9281 94.7637 80.1016 100.59 72.9141 100.59Z" fill="#ED5176"/>
<path d="M34.4118 90.5395L35.1808 93.8489C35.4456 94.9842 34.2142 95.8791 33.2156 95.2764L30.3064 93.5217C30.1009 93.3978 29.8655 93.3324 29.6255 93.3324C29.3856 93.3324 29.1502 93.3978 28.9447 93.5217L26.0347 95.2764C25.0366 95.8784 23.8054 94.9842 24.0695 93.8489L24.8392 90.5393C24.8936 90.3055 24.8831 90.0613 24.8089 89.8329C24.7347 89.6046 24.5996 89.4009 24.4181 89.2438L21.8499 87.0192C20.9689 86.2555 21.4396 84.8082 22.6007 84.7082L25.9866 84.4174C26.2257 84.3968 26.4546 84.3115 26.6487 84.1705C26.8428 84.0295 26.9947 83.8382 27.0882 83.6172L28.4105 80.4875C28.8644 79.4133 30.3864 79.4133 30.8406 80.4875L32.1628 83.6172C32.2564 83.8383 32.4085 84.0296 32.6027 84.1706C32.797 84.3116 33.026 84.397 33.2652 84.4174L36.6503 84.7082C37.8114 84.8081 38.2822 86.2553 37.4011 87.0192L34.8329 89.2438C34.6513 89.4008 34.5161 89.6045 34.4418 89.8329C34.3676 90.0612 34.3573 90.3055 34.4118 90.5393V90.5395ZM54.7511 90.5395L55.5206 93.8489C55.7847 94.9842 54.5534 95.8791 53.5548 95.2764L50.6456 93.5217C50.4401 93.3978 50.2047 93.3323 49.9647 93.3323C49.7247 93.3323 49.4892 93.3978 49.2837 93.5217L46.3739 95.2764C45.3759 95.8784 44.1447 94.9842 44.4085 93.8489L45.1784 90.5393C45.2329 90.3055 45.2224 90.0613 45.1482 89.8329C45.074 89.6046 44.9388 89.4009 44.7573 89.2438L42.1892 87.0192C41.3079 86.2555 41.7788 84.8082 42.94 84.7082L46.3259 84.4174C46.5649 84.3968 46.7938 84.3115 46.9879 84.1705C47.182 84.0295 47.334 83.8382 47.4275 83.6172L48.7505 80.4875C49.2036 79.4133 50.7257 79.4133 51.1796 80.4875L52.5019 83.6172C52.5954 83.8383 52.7475 84.0296 52.9418 84.1706C53.136 84.3116 53.3651 84.397 53.6042 84.4174L56.9894 84.7082C58.1507 84.8081 58.6214 86.2553 57.7402 87.0192L55.1722 89.2438C54.9907 89.4009 54.8556 89.6046 54.7814 89.8329C54.7071 90.0613 54.6967 90.3055 54.7511 90.5393V90.5395ZM75.0902 90.5395L75.8601 93.8489C76.1239 94.9842 74.8927 95.8791 73.8939 95.2764L70.9849 93.5217C70.7794 93.3978 70.5439 93.3323 70.3039 93.3323C70.0639 93.3323 69.8285 93.3978 69.623 93.5217L66.7132 95.2764C65.7152 95.8784 64.4839 94.9842 64.7478 93.8489L65.5177 90.5393C65.5721 90.3055 65.5616 90.0612 65.4874 89.8329C65.4131 89.6046 65.2779 89.4009 65.0964 89.2438L62.5284 87.0192C61.648 86.2555 62.1179 84.8082 63.2792 84.7082L66.6652 84.4174C66.9042 84.3968 67.1331 84.3115 67.3272 84.1705C67.5213 84.0295 67.6732 83.8382 67.7667 83.6172L69.0898 80.4875C69.5429 79.4133 71.065 79.4133 71.5189 80.4875L72.8411 83.6172C72.9347 83.8383 73.0868 84.0296 73.281 84.1706C73.4753 84.3116 73.7043 84.397 73.9435 84.4174L77.3286 84.7082C78.4898 84.8081 78.9607 86.2553 78.0794 87.0192L75.5113 89.2438C75.3298 89.4009 75.1946 89.6046 75.1204 89.8329C75.0462 90.0613 75.0357 90.3055 75.0902 90.5393V90.5395Z" fill="#FFCD34"/>
</g>
<defs>
<clipPath id="clip0_289_10476">
<rect width="100" height="100" fill="white" transform="translate(0 0.590088)"/>
</clipPath>
</defs>
</svg>
