<svg width="100" height="101" viewBox="0 0 100 101" fill="none" xmlns="http://www.w3.org/2000/svg">
<path d="M91.0207 91.4732C93.193 90.5088 95.1116 89.0529 96.6251 87.2203C98.1385 85.3876 99.2055 83.2284 99.7419 80.9129C100.216 78.0264 100.036 75.0703 99.214 72.2629C98.3925 69.4554 96.9509 66.8684 94.9956 64.6927C91.6258 60.9076 85.2303 56.5648 73.9225 57.3717C54.107 58.8311 46.7979 81.5418 46.7385 81.7672C46.7385 81.7672 54.8427 61.5128 72.8427 60.2313C83.1776 59.4956 88.9324 63.3757 91.9462 66.7455C93.6647 68.6409 94.9363 70.8976 95.6674 73.3494C96.3984 75.8013 96.5703 78.3858 96.1703 80.9129C95.3753 85.1726 92.9785 88.2102 89.4426 89.4798C87.5453 90.0859 85.5235 90.1914 83.5735 89.786C81.6234 89.3806 79.8112 88.4781 78.3127 87.166C77.055 86.1219 75.8447 82.4198 76.8532 79.1449C77.7194 76.3447 80.0688 74.6835 83.6403 74.3987C86.3931 74.1258 88.3865 74.8615 89.3714 76.5227C89.8173 77.3455 90.0338 78.273 89.9983 79.2082C89.9628 80.1433 89.6766 81.0518 89.1697 81.8384C88.8478 82.2289 88.4463 82.5461 87.9921 82.7692C87.5378 82.9922 87.0413 83.1158 86.5355 83.1318C81.7893 83.8437 79.8078 79.3467 79.8078 79.3467C79.6721 80.5288 79.9855 81.7188 80.6858 82.6809C81.3591 83.4884 82.1885 84.1516 83.1244 84.6308C84.0603 85.1099 85.0833 85.3952 86.1321 85.4693C87.106 85.6112 88.1002 85.4616 88.9892 85.0392C89.8782 84.6169 90.6222 83.9408 91.1275 83.0962C91.8877 81.9303 92.3139 80.5784 92.36 79.1873C92.406 77.7963 92.07 76.4191 91.3885 75.2056C90.5342 73.7698 88.3628 71.4323 83.3556 71.907C78.8111 72.3341 75.6667 74.636 74.492 78.3974C73.2343 82.4791 74.6463 87.2491 76.7109 88.9815C78.5416 90.576 80.7556 91.6671 83.1353 92.1476C85.5151 92.6282 87.979 92.4816 90.285 91.7224C90.5343 91.6519 90.7799 91.5687 91.0207 91.4732Z" fill="#769C41"/>
<path d="M54.5814 43.9518C53.8695 43.0382 60.1464 41.8872 63.4925 37.0105C64.9638 34.8628 66.2809 28.6216 66.2809 28.6216L62.8873 29.4047L58.9361 16.7442L47.6876 9.34009L41.8972 16.7798C41.8972 16.7798 42.4193 32.7271 40.7818 32.0389C39.1444 31.3507 39.8207 18.7851 39.8207 18.7851L36.4035 13.2913L33.6744 15.9611L14.6895 9.76725L12.1384 29.4996L8.57878 30.7693L11.9723 36.2867C11.9723 36.2867 23.1615 40.6651 23.0547 42.4449C22.9479 44.2248 9.26698 37.2715 9.26698 37.2715L0 39.1463L1.05603 49.5643L11.2841 61.6434L9.06527 64.3962C9.06527 64.3962 15.2235 65.7844 17.822 65.5827C20.4206 65.381 27.3145 58.3091 27.8484 59.3533C28.3824 60.3975 20.4443 72.7139 20.4443 72.7139C20.4443 72.7139 28.2281 76.2735 33.1998 74.2801C35.4917 73.5093 37.6705 72.4359 39.6783 71.0883L40.7937 72.6308C40.7937 72.6308 44.8873 67.5524 43.9381 64.8233C42.9888 62.0942 40.236 61.5366 40.8768 59.1753C41.4463 57.0514 42.6447 55.1648 42.5498 54.2393C43.4278 54.6427 45.5399 54.4529 47.5808 54.8444H47.7113C49.942 55.3902 49.2894 58.0362 51.271 60.0534C53.2525 62.0705 59.6599 60.6822 59.6599 60.6822L58.77 59.0092C60.8704 57.8075 62.7983 56.3267 64.501 54.6071C68.4523 51.0474 68.7252 42.4686 68.7252 42.4686C68.7252 42.4686 55.3527 44.8536 54.5814 43.9518Z" fill="#769C41"/>
<g style="mix-blend-mode:multiply">
<path d="M62.8873 29.3928L66.3283 28.6216C66.3283 28.6216 65.0113 34.851 63.5399 37.0105C60.2057 41.8754 53.917 43.0382 54.6408 43.94C55.3646 44.8418 68.8201 42.5161 68.8201 42.5161C68.8201 42.5161 68.5353 51.0475 64.5841 54.6546C62.8786 56.366 60.9558 57.846 58.8649 59.0567L59.7548 60.7297C59.7548 60.7297 53.3949 62.1536 51.354 60.1008C49.3132 58.0481 50.0132 55.4377 47.7944 54.8919H47.6639C45.6111 54.4884 43.5109 54.6783 42.6329 54.2867C42.6329 54.2867 42.6329 54.2867 42.6329 54.3579L14.8794 9.81472L33.6625 15.9492L36.3797 13.2913L39.797 18.7851C39.797 18.7851 39.1325 31.3388 40.77 32.027C42.4074 32.7152 41.8853 16.7798 41.8853 16.7798L47.6757 9.34009L58.9242 16.7323L62.8873 29.3928Z" fill="#CCCCCC"/>
</g>
<path d="M45.9199 83.1789C45.8125 83.1209 45.7161 83.0446 45.6351 82.9534C45.524 82.8388 45.4372 82.7029 45.3799 82.554C45.3225 82.405 45.2958 82.246 45.3013 82.0865C45.3069 81.927 45.3446 81.7702 45.4121 81.6256C45.4796 81.481 45.5757 81.3515 45.6944 81.2448C45.6944 81.2448 47.5929 79.0734 47.4624 70.9574C47.3319 62.4617 41.0194 55.5322 40.9601 55.4135C40.7445 55.1775 40.6315 54.8655 40.646 54.5462C40.6605 54.2269 40.8012 53.9264 41.0372 53.7108C41.2732 53.4953 41.5852 53.3823 41.9045 53.3967C42.2239 53.4112 42.5244 53.5519 42.7399 53.788C43.0247 54.0965 49.7287 61.5124 49.8592 70.9218C49.9898 80.3312 47.6048 82.7873 47.32 83.0128C47.1351 83.1866 46.8993 83.2965 46.6473 83.3264C46.3953 83.3563 46.1403 83.3046 45.9199 83.1789Z" fill="#769C41"/>
</svg>
