<svg width="100" height="101" viewBox="0 0 100 101" fill="none" xmlns="http://www.w3.org/2000/svg">
<g clip-path="url(#clip0_162_681)">
<path d="M46.5385 25.5666L46.5385 7.77541C46.5394 7.43022 46.6023 7.088 46.7243 6.76508C46.3017 6.26984 46.0709 5.63933 46.074 4.98828L46.074 2.81664C46.077 2.08455 46.3692 1.38331 46.8869 0.865642C47.4045 0.34797 48.1058 0.0557906 48.8379 0.0527338L51.6134 0.0527339C52.3455 0.0557908 53.0467 0.34797 53.5644 0.865642C54.082 1.38331 54.3742 2.08455 54.3773 2.81664L54.3773 4.99989C54.3803 5.65094 54.1496 6.28145 53.7269 6.77669C53.8476 7.09596 53.9105 7.43413 53.9128 7.77542L53.9128 25.8105C56.9205 37.4235 61.7632 37.2377 61.7632 47.1785L61.7632 85.1532C61.7601 85.8873 61.4663 86.5903 60.9462 87.1083C60.426 87.6263 59.7218 87.9171 58.9877 87.9171L41.6958 87.9171C40.9617 87.9171 40.2575 87.6263 39.7373 87.1083C39.2172 86.5903 38.9234 85.8873 38.9203 85.1532C38.9203 85.1532 38.99 54.5296 38.9203 47.1785C38.8158 36.0416 45.1565 34.5203 46.5385 25.5666Z" fill="#769C41"/>
<path d="M54.3767 4.77925L54.3767 2.81664C54.3767 1.29018 53.1393 0.0527343 51.6128 0.0527343L48.3728 0.0527341C46.8463 0.052734 45.6089 1.29018 45.6089 2.81664L45.6089 4.77925C45.6089 6.30571 46.8463 7.54315 48.3728 7.54315L51.6128 7.54315C53.1393 7.54315 54.3767 6.30571 54.3767 4.77925Z" fill="#F5AB35"/>
<path d="M61.7632 73.8887L61.7632 52.7297C61.7632 51.2033 60.5257 49.9658 58.9993 49.9658L41.7074 49.9658C40.181 49.9658 38.9435 51.2033 38.9435 52.7297L38.9435 73.8887C38.9435 75.4152 40.181 76.6526 41.7074 76.6526L58.9993 76.6526C60.5257 76.6526 61.7632 75.4152 61.7632 73.8887Z" fill="#F5AB35"/>
<path d="M46.5379 24.3702C46.5223 25.089 46.7922 25.7846 47.2885 26.3049C47.7848 26.8251 48.467 27.1274 49.1857 27.1457L51.2644 27.1457C51.9832 27.1274 52.6654 26.8251 53.1616 26.3049C53.6579 25.7846 53.9278 25.089 53.9122 24.3702L53.9122 14.801C53.9199 14.4457 53.8575 14.0923 53.7286 13.761C53.5997 13.4298 53.4068 13.1272 53.1609 12.8705C52.915 12.6138 52.621 12.4081 52.2956 12.2651C51.9702 12.1221 51.6198 12.0447 51.2644 12.0371L49.1857 12.0371C48.8303 12.0447 48.4799 12.1221 48.1545 12.2651C47.8291 12.4081 47.5351 12.6138 47.2892 12.8705C47.0433 13.1272 46.8504 13.4298 46.7215 13.761C46.5926 14.0923 46.5302 14.4457 46.5379 14.801L46.5379 24.3702Z" fill="#F5AB35"/>
<path d="M55.2479 41.5231C56.4092 45.0883 55.3989 48.5606 57.2802 47.9683C59.1615 47.3761 59.777 44.0083 58.6622 40.4431C57.5473 36.8779 55.097 34.474 53.2157 35.0662C51.3343 35.6585 54.1215 37.9579 55.2479 41.5231Z" fill="white"/>
<g style="mix-blend-mode:multiply">
<path d="M38.955 73.9234L38.955 85.1532C38.955 85.8862 39.2462 86.5893 39.7645 87.1076C40.2829 87.6259 40.9859 87.9171 41.7189 87.9171L50.3474 87.9171L50.3474 0.052759L48.3848 0.0527589C48.0214 0.0512223 47.6613 0.121665 47.3253 0.26002C46.9893 0.398375 46.684 0.601903 46.427 0.858862C46.17 1.11582 45.9665 1.42112 45.8282 1.75715C45.6898 2.09318 45.6194 2.45327 45.6209 2.81667L45.6209 4.77927C45.6238 5.19552 45.7203 5.60577 45.9032 5.97968C46.0861 6.35358 46.3508 6.68155 46.6777 6.9393C46.5901 7.20957 46.5431 7.49136 46.5383 7.77544L46.5383 25.5666C45.1564 34.5087 38.8273 36.0184 38.9318 47.1785L38.9318 52.6599L38.9318 73.9234L38.955 73.9234Z" fill="#CCCCCC"/>
</g>
<path d="M34.31 39.9669L34.31 27.4829C34.31 25.6829 33.3462 23.5344 37.5617 24.2312L39.3153 24.2312C43.5308 23.5344 42.5669 25.6829 42.5669 27.4829L42.5669 39.9669C43.3101 40.9656 49.9993 67.3737 49.9993 69.1737L49.9993 96.8012C49.9962 97.6626 49.6526 98.4879 49.0435 99.0971C48.4344 99.7062 47.6091 100.05 46.7476 100.053L29.7113 100.053C28.8498 100.05 28.0245 99.7062 27.4154 99.0971C26.8062 98.4879 26.4627 97.6626 26.4596 96.8012L26.4596 69.1737C26.4015 67.3737 32.8584 42.6844 34.31 39.9669Z" fill="#AA0C48"/>
<path d="M42.6594 22.4309C42.6564 22.8674 42.4817 23.285 42.1731 23.5936C41.8645 23.9022 41.4468 24.077 41.0104 24.08L35.8658 24.08C35.4508 24.0452 35.0641 23.8558 34.7822 23.5493C34.5003 23.2428 34.3439 22.8416 34.3439 22.4251C34.3439 22.0087 34.5003 21.6075 34.7822 21.301C35.0641 20.9945 35.4508 20.8051 35.8658 20.7703C35.4284 20.7703 35.009 20.5965 34.6997 20.2873C34.3905 19.978 34.2167 19.5586 34.2167 19.1212C34.2167 18.6839 34.3905 18.2644 34.6997 17.9552C35.009 17.6459 35.4284 17.4722 35.8658 17.4722L41.0104 17.4722C41.4477 17.4722 41.8672 17.6459 42.1764 17.9552C42.4857 18.2644 42.6594 18.6839 42.6594 19.1212C42.6594 19.5586 42.4857 19.978 42.1764 20.2873C41.8672 20.5965 41.4477 20.7703 41.0104 20.7703C41.4488 20.7733 41.8682 20.9497 42.1771 21.2608C42.4861 21.5719 42.6594 21.9925 42.6594 22.4309Z" fill="#2C3A49"/>
<path d="M49.9993 86.4307L49.9993 69.5337L26.4712 69.5337L26.4712 86.4307L49.9993 86.4307Z" fill="#C5D3E2"/>
<path d="M43.6003 54.6339C44.4248 60.7308 44.657 65.7244 44.1461 65.7941C43.6351 65.8637 42.5435 60.9862 41.7305 54.8894C40.9176 48.7925 40.6738 43.7989 41.1964 43.7292C41.7189 43.6596 42.7873 48.5719 43.6003 54.6339Z" fill="white"/>
<g style="mix-blend-mode:multiply">
<path d="M26.4009 69.1733L26.4009 96.8008C26.404 97.6622 26.7475 98.4875 27.3567 99.0967C27.9658 99.7058 28.7911 100.049 29.6526 100.052L38.2346 100.052L38.2346 24.1844L37.5611 24.1844C33.3455 23.4876 34.3094 25.636 34.3094 27.436L34.3094 39.9665C32.8462 42.6839 26.4009 67.3733 26.4009 69.1733Z" fill="#CCCCCC"/>
<path d="M34.2166 22.4193C34.215 22.6369 34.2566 22.8525 34.3387 23.054C34.4209 23.2554 34.5422 23.4385 34.6954 23.5929C34.8487 23.7473 35.031 23.8698 35.2319 23.9534C35.4327 24.037 35.6481 24.08 35.8656 24.08L38.1882 24.08L38.1882 17.4722L35.8656 17.4722C35.4283 17.4722 35.0088 17.6459 34.6996 17.9552C34.3903 18.2644 34.2166 18.6839 34.2166 19.1212C34.2166 19.5586 34.3903 19.978 34.6996 20.2873C35.0088 20.5965 35.4283 20.7703 35.8656 20.7703C35.6491 20.7703 35.4346 20.8129 35.2346 20.8958C35.0345 20.9787 34.8527 21.1001 34.6996 21.2533C34.5464 21.4064 34.425 21.5882 34.3421 21.7883C34.2592 21.9883 34.2166 22.2028 34.2166 22.4193Z" fill="#BFBFBF"/>
</g>
<path d="M58.3606 39.9669L58.3606 27.4829C58.3606 25.6829 57.4083 23.5344 61.6238 24.2312L63.3658 24.2312C67.5813 23.5344 66.6291 25.6829 66.6291 27.4829L66.6291 39.9669C67.3723 40.9656 74.0498 67.3737 74.0498 69.1737L74.0498 96.8012C74.0498 97.6636 73.7072 98.4906 73.0974 99.1004C72.4876 99.7103 71.6605 100.053 70.7981 100.053L53.7734 100.053C53.3464 100.053 52.9236 99.9687 52.5291 99.8053C52.1346 99.6419 51.7761 99.4024 51.4742 99.1004C51.1722 98.7985 50.9327 98.4401 50.7693 98.0455C50.6059 97.651 50.5218 97.2282 50.5218 96.8012L50.5218 69.1737C50.5218 67.3737 56.9089 42.6844 58.3606 39.9669Z" fill="#AA0C48"/>
<path d="M66.7219 22.4309C66.7189 22.8694 66.5425 23.2888 66.2314 23.5977C65.9203 23.9066 65.4997 24.08 65.0613 24.08L59.9283 24.08C59.6993 24.0992 59.4688 24.0707 59.2515 23.9962C59.0341 23.9218 58.8345 23.803 58.6654 23.6475C58.4963 23.4919 58.3613 23.303 58.2689 23.0926C58.1766 22.8822 58.1289 22.6549 58.1289 22.4251C58.1289 22.1954 58.1766 21.9681 58.2689 21.7577C58.3613 21.5473 58.4963 21.3583 58.6654 21.2028C58.8345 21.0473 59.0341 20.9285 59.2515 20.8541C59.4688 20.7796 59.6993 20.7511 59.9283 20.7703C59.4909 20.7703 59.0715 20.5965 58.7622 20.2873C58.453 19.978 58.2792 19.5586 58.2792 19.1212C58.2792 18.6839 58.453 18.2644 58.7622 17.9552C59.0715 17.6459 59.4909 17.4722 59.9283 17.4722L65.0613 17.4722C65.4986 17.4722 65.9181 17.6459 66.2273 17.9552C66.5366 18.2644 66.7103 18.6839 66.7103 19.1212C66.7103 19.5586 66.5366 19.978 66.2273 20.2873C65.9181 20.5965 65.4986 20.7703 65.0613 20.7703C65.5017 20.7703 65.9241 20.9452 66.2355 21.2567C66.547 21.5681 66.7219 21.9905 66.7219 22.4309Z" fill="#2C3A49"/>
<path d="M74.0498 86.4307L74.0498 69.5337L50.5218 69.5337L50.5218 86.4307L74.0498 86.4307Z" fill="#C5D3E2"/>
<path d="M67.6626 54.6339C68.4755 60.7308 68.7194 65.7244 68.1968 65.7941C67.6742 65.8637 66.6058 60.9862 65.7929 54.8894C64.98 48.7925 64.7361 43.7989 65.2587 43.7292C65.7813 43.6596 66.8497 48.5719 67.6626 54.6339Z" fill="white"/>
<g style="mix-blend-mode:multiply">
<path d="M50.5214 69.1733L50.5214 96.8008C50.5244 97.6622 50.868 98.4875 51.4771 99.0967C52.0863 99.7058 52.9116 100.049 53.773 100.052L62.2854 100.052L62.2854 24.1844L61.6235 24.1844C57.3963 23.4876 58.3602 25.636 58.3602 27.436L58.3602 39.9665C56.9086 42.6839 50.5214 67.3733 50.5214 69.1733Z" fill="#CCCCCC"/>
<path d="M58.279 22.4193C58.2774 22.6359 58.3186 22.8506 58.4 23.0513C58.4815 23.2519 58.6017 23.4346 58.7537 23.5888C58.9058 23.743 59.0867 23.8658 59.2862 23.95C59.4857 24.0343 59.6998 24.0785 59.9164 24.08L62.239 24.08L62.239 17.4722L59.9164 17.4722C59.479 17.4722 59.0596 17.6459 58.7503 17.9552C58.4411 18.2644 58.2673 18.6839 58.2673 19.1212C58.2673 19.5586 58.4411 19.978 58.7503 20.2873C59.0596 20.5965 59.479 20.7703 59.9164 20.7703C59.4811 20.7733 59.0646 20.9484 58.7578 21.2574C58.4511 21.5663 58.279 21.984 58.279 22.4193Z" fill="#BFBFBF"/>
</g>
</g>
<defs>
<clipPath id="clip0_162_681">
<rect width="100" height="100" fill="white" transform="translate(0 0.589844)"/>
</clipPath>
</defs>
</svg>
